M48
; DRILL file {KiCad (6.0.9)} date Fri Dec 30 22:43:19 2022
; FORMAT={-:-/ absolute / metric / decimal}
; #@! TF.CreationDate,2022-12-30T22:43:19+01:00
; #@! TF.GenerationSoftware,Kicad,Pcbnew,(6.0.9)
; #@! TF.FileFunction,Plated,1,2,PTH
FMAT,2
METRIC
; #@! TA.AperFunction,Plated,PTH,ComponentDrill
T1C0.800
; #@! TA.AperFunction,Plated,PTH,ComponentDrill
T2C0.900
; #@! TA.AperFunction,Plated,PTH,ComponentDrill
T3C1.000
%
G90
G05
T1
X141.655Y-92.025
X141.655Y-117.425
X144.195Y-92.025
X144.195Y-117.425
X146.67Y-77.75
X146.735Y-92.025
X146.735Y-117.425
X146.84Y-127.5
X146.84Y-132.5
X146.84Y-137.5
X149.275Y-92.025
X149.275Y-117.425
X151.815Y-92.025
X151.815Y-117.425
X154.355Y-92.025
X154.355Y-117.425
X156.83Y-77.75
X156.895Y-92.025
X156.895Y-117.425
X157.0Y-127.5
X157.0Y-132.5
X157.0Y-137.5
X159.435Y-92.025
X159.435Y-117.425
X161.975Y-92.025
X161.975Y-117.425
X164.515Y-92.025
X164.515Y-117.425
X167.055Y-92.025
X167.055Y-117.425
X169.595Y-92.025
X169.595Y-117.425
X172.135Y-92.025
X172.135Y-117.425
X174.675Y-92.025
X174.675Y-117.425
X177.215Y-92.025
X177.215Y-117.425
X179.755Y-92.025
X179.755Y-117.425
X182.295Y-92.025
X182.295Y-117.425
X184.832Y-92.029
X184.835Y-117.425
X187.372Y-92.029
X187.375Y-117.425
T2
X162.0Y-76.475
X162.0Y-79.015
X162.0Y-127.485
X162.0Y-130.025
T3
X95.275Y-100.95
X95.275Y-103.49
X95.275Y-106.03
X95.275Y-108.57
X175.125Y-75.25
X175.125Y-77.79
X175.125Y-80.33
X175.125Y-136.225
X175.125Y-138.765
X175.25Y-127.5
X175.25Y-130.04
T0
M30
