%TF.GenerationSoftware,KiCad,Pcbnew,(6.0.9)*%
%TF.CreationDate,2022-12-30T22:43:23+01:00*%
%TF.ProjectId,mainboard,6d61696e-626f-4617-9264-2e6b69636164,rev?*%
%TF.SameCoordinates,Original*%
%TF.FileFunction,Legend,Top*%
%TF.FilePolarity,Positive*%
%FSLAX46Y46*%
G04 Gerber Fmt 4.6, Leading zero omitted, Abs format (unit mm)*
G04 Created by KiCad (PCBNEW (6.0.9)) date 2022-12-30 22:43:23*
%MOMM*%
%LPD*%
G01*
G04 APERTURE LIST*
%ADD10C,0.150000*%
%ADD11C,0.120000*%
G04 APERTURE END LIST*
D10*
X93000000Y-85250000D02*
X129750000Y-85250000D01*
X129750000Y-85250000D02*
X129750000Y-123750000D01*
X129750000Y-123750000D02*
X93000000Y-123750000D01*
X93000000Y-123750000D02*
X93000000Y-85250000D01*
X123294761Y-81630952D02*
X123342380Y-81488095D01*
X123342380Y-81250000D01*
X123294761Y-81154761D01*
X123247142Y-81107142D01*
X123151904Y-81059523D01*
X123056666Y-81059523D01*
X122961428Y-81107142D01*
X122913809Y-81154761D01*
X122866190Y-81250000D01*
X122818571Y-81440476D01*
X122770952Y-81535714D01*
X122723333Y-81583333D01*
X122628095Y-81630952D01*
X122532857Y-81630952D01*
X122437619Y-81583333D01*
X122390000Y-81535714D01*
X122342380Y-81440476D01*
X122342380Y-81202380D01*
X122390000Y-81059523D01*
X123342380Y-80630952D02*
X122675714Y-80630952D01*
X122770952Y-80630952D02*
X122723333Y-80583333D01*
X122675714Y-80488095D01*
X122675714Y-80345238D01*
X122723333Y-80250000D01*
X122818571Y-80202380D01*
X123342380Y-80202380D01*
X122818571Y-80202380D02*
X122723333Y-80154761D01*
X122675714Y-80059523D01*
X122675714Y-79916666D01*
X122723333Y-79821428D01*
X122818571Y-79773809D01*
X123342380Y-79773809D01*
X123342380Y-78869047D02*
X122818571Y-78869047D01*
X122723333Y-78916666D01*
X122675714Y-79011904D01*
X122675714Y-79202380D01*
X122723333Y-79297619D01*
X123294761Y-78869047D02*
X123342380Y-78964285D01*
X123342380Y-79202380D01*
X123294761Y-79297619D01*
X123199523Y-79345238D01*
X123104285Y-79345238D01*
X123009047Y-79297619D01*
X122961428Y-79202380D01*
X122961428Y-78964285D01*
X122913809Y-78869047D01*
X123342380Y-78392857D02*
X122675714Y-78392857D01*
X122866190Y-78392857D02*
X122770952Y-78345238D01*
X122723333Y-78297619D01*
X122675714Y-78202380D01*
X122675714Y-78107142D01*
X122675714Y-77916666D02*
X122675714Y-77535714D01*
X122342380Y-77773809D02*
X123199523Y-77773809D01*
X123294761Y-77726190D01*
X123342380Y-77630952D01*
X123342380Y-77535714D01*
X123342380Y-76440476D02*
X122342380Y-76440476D01*
X122818571Y-76440476D02*
X122818571Y-75869047D01*
X123342380Y-75869047D02*
X122342380Y-75869047D01*
X123342380Y-75250000D02*
X123294761Y-75345238D01*
X123247142Y-75392857D01*
X123151904Y-75440476D01*
X122866190Y-75440476D01*
X122770952Y-75392857D01*
X122723333Y-75345238D01*
X122675714Y-75250000D01*
X122675714Y-75107142D01*
X122723333Y-75011904D01*
X122770952Y-74964285D01*
X122866190Y-74916666D01*
X123151904Y-74916666D01*
X123247142Y-74964285D01*
X123294761Y-75011904D01*
X123342380Y-75107142D01*
X123342380Y-75250000D01*
X123342380Y-74488095D02*
X122675714Y-74488095D01*
X122770952Y-74488095D02*
X122723333Y-74440476D01*
X122675714Y-74345238D01*
X122675714Y-74202380D01*
X122723333Y-74107142D01*
X122818571Y-74059523D01*
X123342380Y-74059523D01*
X122818571Y-74059523D02*
X122723333Y-74011904D01*
X122675714Y-73916666D01*
X122675714Y-73773809D01*
X122723333Y-73678571D01*
X122818571Y-73630952D01*
X123342380Y-73630952D01*
X123294761Y-72773809D02*
X123342380Y-72869047D01*
X123342380Y-73059523D01*
X123294761Y-73154761D01*
X123199523Y-73202380D01*
X122818571Y-73202380D01*
X122723333Y-73154761D01*
X122675714Y-73059523D01*
X122675714Y-72869047D01*
X122723333Y-72773809D01*
X122818571Y-72726190D01*
X122913809Y-72726190D01*
X123009047Y-73202380D01*
X123056666Y-71583333D02*
X123056666Y-71107142D01*
X123342380Y-71678571D02*
X122342380Y-71345238D01*
X123342380Y-71011904D01*
X122675714Y-70250000D02*
X123485238Y-70250000D01*
X123580476Y-70297619D01*
X123628095Y-70345238D01*
X123675714Y-70440476D01*
X123675714Y-70583333D01*
X123628095Y-70678571D01*
X123294761Y-70250000D02*
X123342380Y-70345238D01*
X123342380Y-70535714D01*
X123294761Y-70630952D01*
X123247142Y-70678571D01*
X123151904Y-70726190D01*
X122866190Y-70726190D01*
X122770952Y-70678571D01*
X122723333Y-70630952D01*
X122675714Y-70535714D01*
X122675714Y-70345238D01*
X122723333Y-70250000D01*
X123294761Y-69392857D02*
X123342380Y-69488095D01*
X123342380Y-69678571D01*
X123294761Y-69773809D01*
X123199523Y-69821428D01*
X122818571Y-69821428D01*
X122723333Y-69773809D01*
X122675714Y-69678571D01*
X122675714Y-69488095D01*
X122723333Y-69392857D01*
X122818571Y-69345238D01*
X122913809Y-69345238D01*
X123009047Y-69821428D01*
X122675714Y-68916666D02*
X123342380Y-68916666D01*
X122770952Y-68916666D02*
X122723333Y-68869047D01*
X122675714Y-68773809D01*
X122675714Y-68630952D01*
X122723333Y-68535714D01*
X122818571Y-68488095D01*
X123342380Y-68488095D01*
X122675714Y-68154761D02*
X122675714Y-67773809D01*
X122342380Y-68011904D02*
X123199523Y-68011904D01*
X123294761Y-67964285D01*
X123342380Y-67869047D01*
X123342380Y-67773809D01*
X125562380Y-78940476D02*
X126562380Y-78607142D01*
X125562380Y-78273809D01*
X126514761Y-77559523D02*
X126562380Y-77654761D01*
X126562380Y-77845238D01*
X126514761Y-77940476D01*
X126419523Y-77988095D01*
X126038571Y-77988095D01*
X125943333Y-77940476D01*
X125895714Y-77845238D01*
X125895714Y-77654761D01*
X125943333Y-77559523D01*
X126038571Y-77511904D01*
X126133809Y-77511904D01*
X126229047Y-77988095D01*
X126562380Y-77083333D02*
X125895714Y-77083333D01*
X126086190Y-77083333D02*
X125990952Y-77035714D01*
X125943333Y-76988095D01*
X125895714Y-76892857D01*
X125895714Y-76797619D01*
X126514761Y-76511904D02*
X126562380Y-76416666D01*
X126562380Y-76226190D01*
X126514761Y-76130952D01*
X126419523Y-76083333D01*
X126371904Y-76083333D01*
X126276666Y-76130952D01*
X126229047Y-76226190D01*
X126229047Y-76369047D01*
X126181428Y-76464285D01*
X126086190Y-76511904D01*
X126038571Y-76511904D01*
X125943333Y-76464285D01*
X125895714Y-76369047D01*
X125895714Y-76226190D01*
X125943333Y-76130952D01*
X126562380Y-75654761D02*
X125895714Y-75654761D01*
X125562380Y-75654761D02*
X125610000Y-75702380D01*
X125657619Y-75654761D01*
X125610000Y-75607142D01*
X125562380Y-75654761D01*
X125657619Y-75654761D01*
X126562380Y-75035714D02*
X126514761Y-75130952D01*
X126467142Y-75178571D01*
X126371904Y-75226190D01*
X126086190Y-75226190D01*
X125990952Y-75178571D01*
X125943333Y-75130952D01*
X125895714Y-75035714D01*
X125895714Y-74892857D01*
X125943333Y-74797619D01*
X125990952Y-74750000D01*
X126086190Y-74702380D01*
X126371904Y-74702380D01*
X126467142Y-74750000D01*
X126514761Y-74797619D01*
X126562380Y-74892857D01*
X126562380Y-75035714D01*
X125895714Y-74273809D02*
X126562380Y-74273809D01*
X125990952Y-74273809D02*
X125943333Y-74226190D01*
X125895714Y-74130952D01*
X125895714Y-73988095D01*
X125943333Y-73892857D01*
X126038571Y-73845238D01*
X126562380Y-73845238D01*
X126562380Y-72083333D02*
X126562380Y-72654761D01*
X126562380Y-72369047D02*
X125562380Y-72369047D01*
X125705238Y-72464285D01*
X125800476Y-72559523D01*
X125848095Y-72654761D01*
X126467142Y-71654761D02*
X126514761Y-71607142D01*
X126562380Y-71654761D01*
X126514761Y-71702380D01*
X126467142Y-71654761D01*
X126562380Y-71654761D01*
X125562380Y-70988095D02*
X125562380Y-70892857D01*
X125610000Y-70797619D01*
X125657619Y-70750000D01*
X125752857Y-70702380D01*
X125943333Y-70654761D01*
X126181428Y-70654761D01*
X126371904Y-70702380D01*
X126467142Y-70750000D01*
X126514761Y-70797619D01*
X126562380Y-70892857D01*
X126562380Y-70988095D01*
X126514761Y-71083333D01*
X126467142Y-71130952D01*
X126371904Y-71178571D01*
X126181428Y-71226190D01*
X125943333Y-71226190D01*
X125752857Y-71178571D01*
X125657619Y-71130952D01*
X125610000Y-71083333D01*
X125562380Y-70988095D01*
%TO.C,REF\u002A\u002A*%
X166154761Y-81226190D02*
X166202380Y-81083333D01*
X166202380Y-80845238D01*
X166154761Y-80750000D01*
X166107142Y-80702380D01*
X166011904Y-80654761D01*
X165916666Y-80654761D01*
X165821428Y-80702380D01*
X165773809Y-80750000D01*
X165726190Y-80845238D01*
X165678571Y-81035714D01*
X165630952Y-81130952D01*
X165583333Y-81178571D01*
X165488095Y-81226190D01*
X165392857Y-81226190D01*
X165297619Y-81178571D01*
X165250000Y-81130952D01*
X165202380Y-81035714D01*
X165202380Y-80797619D01*
X165250000Y-80654761D01*
X165535714Y-80369047D02*
X165535714Y-79988095D01*
X165202380Y-80226190D02*
X166059523Y-80226190D01*
X166154761Y-80178571D01*
X166202380Y-80083333D01*
X166202380Y-79988095D01*
X166202380Y-79654761D02*
X165535714Y-79654761D01*
X165726190Y-79654761D02*
X165630952Y-79607142D01*
X165583333Y-79559523D01*
X165535714Y-79464285D01*
X165535714Y-79369047D01*
X166202380Y-78892857D02*
X166154761Y-78988095D01*
X166107142Y-79035714D01*
X166011904Y-79083333D01*
X165726190Y-79083333D01*
X165630952Y-79035714D01*
X165583333Y-78988095D01*
X165535714Y-78892857D01*
X165535714Y-78750000D01*
X165583333Y-78654761D01*
X165630952Y-78607142D01*
X165726190Y-78559523D01*
X166011904Y-78559523D01*
X166107142Y-78607142D01*
X166154761Y-78654761D01*
X166202380Y-78750000D01*
X166202380Y-78892857D01*
X166202380Y-78130952D02*
X165535714Y-78130952D01*
X165630952Y-78130952D02*
X165583333Y-78083333D01*
X165535714Y-77988095D01*
X165535714Y-77845238D01*
X165583333Y-77750000D01*
X165678571Y-77702380D01*
X166202380Y-77702380D01*
X165678571Y-77702380D02*
X165583333Y-77654761D01*
X165535714Y-77559523D01*
X165535714Y-77416666D01*
X165583333Y-77321428D01*
X165678571Y-77273809D01*
X166202380Y-77273809D01*
X165821428Y-76797619D02*
X165821428Y-76035714D01*
X166202380Y-75083333D02*
X166202380Y-75559523D01*
X165202380Y-75559523D01*
X165678571Y-74750000D02*
X165678571Y-74416666D01*
X166202380Y-74273809D02*
X166202380Y-74750000D01*
X165202380Y-74750000D01*
X165202380Y-74273809D01*
X166202380Y-73845238D02*
X165202380Y-73845238D01*
X165202380Y-73607142D01*
X165250000Y-73464285D01*
X165345238Y-73369047D01*
X165440476Y-73321428D01*
X165630952Y-73273809D01*
X165773809Y-73273809D01*
X165964285Y-73321428D01*
X166059523Y-73369047D01*
X166154761Y-73464285D01*
X166202380Y-73607142D01*
X166202380Y-73845238D01*
X149511904Y-77202380D02*
X150130952Y-77202380D01*
X149797619Y-77583333D01*
X149940476Y-77583333D01*
X150035714Y-77630952D01*
X150083333Y-77678571D01*
X150130952Y-77773809D01*
X150130952Y-78011904D01*
X150083333Y-78107142D01*
X150035714Y-78154761D01*
X149940476Y-78202380D01*
X149654761Y-78202380D01*
X149559523Y-78154761D01*
X149511904Y-78107142D01*
X150750000Y-77202380D02*
X150845238Y-77202380D01*
X150940476Y-77250000D01*
X150988095Y-77297619D01*
X151035714Y-77392857D01*
X151083333Y-77583333D01*
X151083333Y-77821428D01*
X151035714Y-78011904D01*
X150988095Y-78107142D01*
X150940476Y-78154761D01*
X150845238Y-78202380D01*
X150750000Y-78202380D01*
X150654761Y-78154761D01*
X150607142Y-78107142D01*
X150559523Y-78011904D01*
X150511904Y-77821428D01*
X150511904Y-77583333D01*
X150559523Y-77392857D01*
X150607142Y-77297619D01*
X150654761Y-77250000D01*
X150750000Y-77202380D01*
X151702380Y-77202380D02*
X151797619Y-77202380D01*
X151892857Y-77250000D01*
X151940476Y-77297619D01*
X151988095Y-77392857D01*
X152035714Y-77583333D01*
X152035714Y-77821428D01*
X151988095Y-78011904D01*
X151940476Y-78107142D01*
X151892857Y-78154761D01*
X151797619Y-78202380D01*
X151702380Y-78202380D01*
X151607142Y-78154761D01*
X151559523Y-78107142D01*
X151511904Y-78011904D01*
X151464285Y-77821428D01*
X151464285Y-77583333D01*
X151511904Y-77392857D01*
X151559523Y-77297619D01*
X151607142Y-77250000D01*
X151702380Y-77202380D01*
X153178571Y-78202380D02*
X153416666Y-78202380D01*
X153416666Y-78011904D01*
X153321428Y-77964285D01*
X153226190Y-77869047D01*
X153178571Y-77726190D01*
X153178571Y-77488095D01*
X153226190Y-77345238D01*
X153321428Y-77250000D01*
X153464285Y-77202380D01*
X153654761Y-77202380D01*
X153797619Y-77250000D01*
X153892857Y-77345238D01*
X153940476Y-77488095D01*
X153940476Y-77726190D01*
X153892857Y-77869047D01*
X153797619Y-77964285D01*
X153702380Y-78011904D01*
X153702380Y-78202380D01*
X153940476Y-78202380D01*
X170702380Y-139666666D02*
X170702380Y-139095238D01*
X171702380Y-139380952D02*
X170702380Y-139380952D01*
X171702380Y-138333333D02*
X171178571Y-138333333D01*
X171083333Y-138380952D01*
X171035714Y-138476190D01*
X171035714Y-138666666D01*
X171083333Y-138761904D01*
X171654761Y-138333333D02*
X171702380Y-138428571D01*
X171702380Y-138666666D01*
X171654761Y-138761904D01*
X171559523Y-138809523D01*
X171464285Y-138809523D01*
X171369047Y-138761904D01*
X171321428Y-138666666D01*
X171321428Y-138428571D01*
X171273809Y-138333333D01*
X171654761Y-137904761D02*
X171702380Y-137809523D01*
X171702380Y-137619047D01*
X171654761Y-137523809D01*
X171559523Y-137476190D01*
X171511904Y-137476190D01*
X171416666Y-137523809D01*
X171369047Y-137619047D01*
X171369047Y-137761904D01*
X171321428Y-137857142D01*
X171226190Y-137904761D01*
X171178571Y-137904761D01*
X171083333Y-137857142D01*
X171035714Y-137761904D01*
X171035714Y-137619047D01*
X171083333Y-137523809D01*
X171035714Y-137190476D02*
X171035714Y-136809523D01*
X170702380Y-137047619D02*
X171559523Y-137047619D01*
X171654761Y-137000000D01*
X171702380Y-136904761D01*
X171702380Y-136809523D01*
X171654761Y-136095238D02*
X171702380Y-136190476D01*
X171702380Y-136380952D01*
X171654761Y-136476190D01*
X171559523Y-136523809D01*
X171178571Y-136523809D01*
X171083333Y-136476190D01*
X171035714Y-136380952D01*
X171035714Y-136190476D01*
X171083333Y-136095238D01*
X171178571Y-136047619D01*
X171273809Y-136047619D01*
X171369047Y-136523809D01*
X171702380Y-135619047D02*
X171035714Y-135619047D01*
X171226190Y-135619047D02*
X171130952Y-135571428D01*
X171083333Y-135523809D01*
X171035714Y-135428571D01*
X171035714Y-135333333D01*
X88202380Y-106952380D02*
X87202380Y-106952380D01*
X87202380Y-106714285D01*
X87250000Y-106571428D01*
X87345238Y-106476190D01*
X87440476Y-106428571D01*
X87630952Y-106380952D01*
X87773809Y-106380952D01*
X87964285Y-106428571D01*
X88059523Y-106476190D01*
X88154761Y-106571428D01*
X88202380Y-106714285D01*
X88202380Y-106952380D01*
X88202380Y-105952380D02*
X87535714Y-105952380D01*
X87202380Y-105952380D02*
X87250000Y-106000000D01*
X87297619Y-105952380D01*
X87250000Y-105904761D01*
X87202380Y-105952380D01*
X87297619Y-105952380D01*
X88154761Y-105523809D02*
X88202380Y-105428571D01*
X88202380Y-105238095D01*
X88154761Y-105142857D01*
X88059523Y-105095238D01*
X88011904Y-105095238D01*
X87916666Y-105142857D01*
X87869047Y-105238095D01*
X87869047Y-105380952D01*
X87821428Y-105476190D01*
X87726190Y-105523809D01*
X87678571Y-105523809D01*
X87583333Y-105476190D01*
X87535714Y-105380952D01*
X87535714Y-105238095D01*
X87583333Y-105142857D01*
X87535714Y-104666666D02*
X88535714Y-104666666D01*
X87583333Y-104666666D02*
X87535714Y-104571428D01*
X87535714Y-104380952D01*
X87583333Y-104285714D01*
X87630952Y-104238095D01*
X87726190Y-104190476D01*
X88011904Y-104190476D01*
X88107142Y-104238095D01*
X88154761Y-104285714D01*
X88202380Y-104380952D01*
X88202380Y-104571428D01*
X88154761Y-104666666D01*
X88202380Y-103619047D02*
X88154761Y-103714285D01*
X88059523Y-103761904D01*
X87202380Y-103761904D01*
X88202380Y-102809523D02*
X87678571Y-102809523D01*
X87583333Y-102857142D01*
X87535714Y-102952380D01*
X87535714Y-103142857D01*
X87583333Y-103238095D01*
X88154761Y-102809523D02*
X88202380Y-102904761D01*
X88202380Y-103142857D01*
X88154761Y-103238095D01*
X88059523Y-103285714D01*
X87964285Y-103285714D01*
X87869047Y-103238095D01*
X87821428Y-103142857D01*
X87821428Y-102904761D01*
X87773809Y-102809523D01*
X87535714Y-102428571D02*
X88202380Y-102190476D01*
X87535714Y-101952380D02*
X88202380Y-102190476D01*
X88440476Y-102285714D01*
X88488095Y-102333333D01*
X88535714Y-102428571D01*
X89714285Y-103904761D02*
X89857142Y-103952380D01*
X90095238Y-103952380D01*
X90190476Y-103904761D01*
X90238095Y-103857142D01*
X90285714Y-103761904D01*
X90285714Y-103666666D01*
X90238095Y-103571428D01*
X90190476Y-103523809D01*
X90095238Y-103476190D01*
X89904761Y-103428571D01*
X89809523Y-103380952D01*
X89761904Y-103333333D01*
X89714285Y-103238095D01*
X89714285Y-103142857D01*
X89761904Y-103047619D01*
X89809523Y-103000000D01*
X89904761Y-102952380D01*
X90142857Y-102952380D01*
X90285714Y-103000000D01*
X91285714Y-103857142D02*
X91238095Y-103904761D01*
X91095238Y-103952380D01*
X91000000Y-103952380D01*
X90857142Y-103904761D01*
X90761904Y-103809523D01*
X90714285Y-103714285D01*
X90666666Y-103523809D01*
X90666666Y-103380952D01*
X90714285Y-103190476D01*
X90761904Y-103095238D01*
X90857142Y-103000000D01*
X91000000Y-102952380D01*
X91095238Y-102952380D01*
X91238095Y-103000000D01*
X91285714Y-103047619D01*
X91714285Y-103952380D02*
X91714285Y-102952380D01*
X92285714Y-103952380D02*
X91857142Y-103380952D01*
X92285714Y-102952380D02*
X91714285Y-103523809D01*
X89785714Y-101354761D02*
X89928571Y-101402380D01*
X90166666Y-101402380D01*
X90261904Y-101354761D01*
X90309523Y-101307142D01*
X90357142Y-101211904D01*
X90357142Y-101116666D01*
X90309523Y-101021428D01*
X90261904Y-100973809D01*
X90166666Y-100926190D01*
X89976190Y-100878571D01*
X89880952Y-100830952D01*
X89833333Y-100783333D01*
X89785714Y-100688095D01*
X89785714Y-100592857D01*
X89833333Y-100497619D01*
X89880952Y-100450000D01*
X89976190Y-100402380D01*
X90214285Y-100402380D01*
X90357142Y-100450000D01*
X90785714Y-101402380D02*
X90785714Y-100402380D01*
X91023809Y-100402380D01*
X91166666Y-100450000D01*
X91261904Y-100545238D01*
X91309523Y-100640476D01*
X91357142Y-100830952D01*
X91357142Y-100973809D01*
X91309523Y-101164285D01*
X91261904Y-101259523D01*
X91166666Y-101354761D01*
X91023809Y-101402380D01*
X90785714Y-101402380D01*
X91738095Y-101116666D02*
X92214285Y-101116666D01*
X91642857Y-101402380D02*
X91976190Y-100402380D01*
X92309523Y-101402380D01*
X90238095Y-105500000D02*
X90142857Y-105452380D01*
X90000000Y-105452380D01*
X89857142Y-105500000D01*
X89761904Y-105595238D01*
X89714285Y-105690476D01*
X89666666Y-105880952D01*
X89666666Y-106023809D01*
X89714285Y-106214285D01*
X89761904Y-106309523D01*
X89857142Y-106404761D01*
X90000000Y-106452380D01*
X90095238Y-106452380D01*
X90238095Y-106404761D01*
X90285714Y-106357142D01*
X90285714Y-106023809D01*
X90095238Y-106023809D01*
X90714285Y-106452380D02*
X90714285Y-105452380D01*
X91285714Y-106452380D01*
X91285714Y-105452380D01*
X91761904Y-106452380D02*
X91761904Y-105452380D01*
X92000000Y-105452380D01*
X92142857Y-105500000D01*
X92238095Y-105595238D01*
X92285714Y-105690476D01*
X92333333Y-105880952D01*
X92333333Y-106023809D01*
X92285714Y-106214285D01*
X92238095Y-106309523D01*
X92142857Y-106404761D01*
X92000000Y-106452380D01*
X91761904Y-106452380D01*
X89666666Y-108202380D02*
X90000000Y-109202380D01*
X90333333Y-108202380D01*
X91238095Y-109107142D02*
X91190476Y-109154761D01*
X91047619Y-109202380D01*
X90952380Y-109202380D01*
X90809523Y-109154761D01*
X90714285Y-109059523D01*
X90666666Y-108964285D01*
X90619047Y-108773809D01*
X90619047Y-108630952D01*
X90666666Y-108440476D01*
X90714285Y-108345238D01*
X90809523Y-108250000D01*
X90952380Y-108202380D01*
X91047619Y-108202380D01*
X91190476Y-108250000D01*
X91238095Y-108297619D01*
X92238095Y-109107142D02*
X92190476Y-109154761D01*
X92047619Y-109202380D01*
X91952380Y-109202380D01*
X91809523Y-109154761D01*
X91714285Y-109059523D01*
X91666666Y-108964285D01*
X91619047Y-108773809D01*
X91619047Y-108630952D01*
X91666666Y-108440476D01*
X91714285Y-108345238D01*
X91809523Y-108250000D01*
X91952380Y-108202380D01*
X92047619Y-108202380D01*
X92190476Y-108250000D01*
X92238095Y-108297619D01*
X170750000Y-132738095D02*
X170702380Y-132833333D01*
X170702380Y-132976190D01*
X170750000Y-133119047D01*
X170845238Y-133214285D01*
X170940476Y-133261904D01*
X171130952Y-133309523D01*
X171273809Y-133309523D01*
X171464285Y-133261904D01*
X171559523Y-133214285D01*
X171654761Y-133119047D01*
X171702380Y-132976190D01*
X171702380Y-132880952D01*
X171654761Y-132738095D01*
X171607142Y-132690476D01*
X171273809Y-132690476D01*
X171273809Y-132880952D01*
X171702380Y-131833333D02*
X171178571Y-131833333D01*
X171083333Y-131880952D01*
X171035714Y-131976190D01*
X171035714Y-132166666D01*
X171083333Y-132261904D01*
X171654761Y-131833333D02*
X171702380Y-131928571D01*
X171702380Y-132166666D01*
X171654761Y-132261904D01*
X171559523Y-132309523D01*
X171464285Y-132309523D01*
X171369047Y-132261904D01*
X171321428Y-132166666D01*
X171321428Y-131928571D01*
X171273809Y-131833333D01*
X171654761Y-131404761D02*
X171702380Y-131309523D01*
X171702380Y-131119047D01*
X171654761Y-131023809D01*
X171559523Y-130976190D01*
X171511904Y-130976190D01*
X171416666Y-131023809D01*
X171369047Y-131119047D01*
X171369047Y-131261904D01*
X171321428Y-131357142D01*
X171226190Y-131404761D01*
X171178571Y-131404761D01*
X171083333Y-131357142D01*
X171035714Y-131261904D01*
X171035714Y-131119047D01*
X171083333Y-131023809D01*
X171321428Y-130547619D02*
X171321428Y-129785714D01*
X171654761Y-129357142D02*
X171702380Y-129214285D01*
X171702380Y-128976190D01*
X171654761Y-128880952D01*
X171607142Y-128833333D01*
X171511904Y-128785714D01*
X171416666Y-128785714D01*
X171321428Y-128833333D01*
X171273809Y-128880952D01*
X171226190Y-128976190D01*
X171178571Y-129166666D01*
X171130952Y-129261904D01*
X171083333Y-129309523D01*
X170988095Y-129357142D01*
X170892857Y-129357142D01*
X170797619Y-129309523D01*
X170750000Y-129261904D01*
X170702380Y-129166666D01*
X170702380Y-128928571D01*
X170750000Y-128785714D01*
X171654761Y-127976190D02*
X171702380Y-128071428D01*
X171702380Y-128261904D01*
X171654761Y-128357142D01*
X171559523Y-128404761D01*
X171178571Y-128404761D01*
X171083333Y-128357142D01*
X171035714Y-128261904D01*
X171035714Y-128071428D01*
X171083333Y-127976190D01*
X171178571Y-127928571D01*
X171273809Y-127928571D01*
X171369047Y-128404761D01*
X171035714Y-127500000D02*
X171702380Y-127500000D01*
X171130952Y-127500000D02*
X171083333Y-127452380D01*
X171035714Y-127357142D01*
X171035714Y-127214285D01*
X171083333Y-127119047D01*
X171178571Y-127071428D01*
X171702380Y-127071428D01*
X171654761Y-126642857D02*
X171702380Y-126547619D01*
X171702380Y-126357142D01*
X171654761Y-126261904D01*
X171559523Y-126214285D01*
X171511904Y-126214285D01*
X171416666Y-126261904D01*
X171369047Y-126357142D01*
X171369047Y-126500000D01*
X171321428Y-126595238D01*
X171226190Y-126642857D01*
X171178571Y-126642857D01*
X171083333Y-126595238D01*
X171035714Y-126500000D01*
X171035714Y-126357142D01*
X171083333Y-126261904D01*
X171702380Y-125642857D02*
X171654761Y-125738095D01*
X171607142Y-125785714D01*
X171511904Y-125833333D01*
X171226190Y-125833333D01*
X171130952Y-125785714D01*
X171083333Y-125738095D01*
X171035714Y-125642857D01*
X171035714Y-125500000D01*
X171083333Y-125404761D01*
X171130952Y-125357142D01*
X171226190Y-125309523D01*
X171511904Y-125309523D01*
X171607142Y-125357142D01*
X171654761Y-125404761D01*
X171702380Y-125500000D01*
X171702380Y-125642857D01*
X171702380Y-124880952D02*
X171035714Y-124880952D01*
X171226190Y-124880952D02*
X171130952Y-124833333D01*
X171083333Y-124785714D01*
X171035714Y-124690476D01*
X171035714Y-124595238D01*
X165250000Y-131326428D02*
X165202380Y-131421666D01*
X165202380Y-131564523D01*
X165250000Y-131707380D01*
X165345238Y-131802619D01*
X165440476Y-131850238D01*
X165630952Y-131897857D01*
X165773809Y-131897857D01*
X165964285Y-131850238D01*
X166059523Y-131802619D01*
X166154761Y-131707380D01*
X166202380Y-131564523D01*
X166202380Y-131469285D01*
X166154761Y-131326428D01*
X166107142Y-131278809D01*
X165773809Y-131278809D01*
X165773809Y-131469285D01*
X166202380Y-130421666D02*
X165678571Y-130421666D01*
X165583333Y-130469285D01*
X165535714Y-130564523D01*
X165535714Y-130755000D01*
X165583333Y-130850238D01*
X166154761Y-130421666D02*
X166202380Y-130516904D01*
X166202380Y-130755000D01*
X166154761Y-130850238D01*
X166059523Y-130897857D01*
X165964285Y-130897857D01*
X165869047Y-130850238D01*
X165821428Y-130755000D01*
X165821428Y-130516904D01*
X165773809Y-130421666D01*
X166154761Y-129993095D02*
X166202380Y-129897857D01*
X166202380Y-129707380D01*
X166154761Y-129612142D01*
X166059523Y-129564523D01*
X166011904Y-129564523D01*
X165916666Y-129612142D01*
X165869047Y-129707380D01*
X165869047Y-129850238D01*
X165821428Y-129945476D01*
X165726190Y-129993095D01*
X165678571Y-129993095D01*
X165583333Y-129945476D01*
X165535714Y-129850238D01*
X165535714Y-129707380D01*
X165583333Y-129612142D01*
X165821428Y-129135952D02*
X165821428Y-128374047D01*
X166202380Y-127421666D02*
X166202380Y-127897857D01*
X165202380Y-127897857D01*
X165678571Y-127088333D02*
X165678571Y-126755000D01*
X166202380Y-126612142D02*
X166202380Y-127088333D01*
X165202380Y-127088333D01*
X165202380Y-126612142D01*
X166202380Y-126183571D02*
X165202380Y-126183571D01*
X165202380Y-125945476D01*
X165250000Y-125802619D01*
X165345238Y-125707380D01*
X165440476Y-125659761D01*
X165630952Y-125612142D01*
X165773809Y-125612142D01*
X165964285Y-125659761D01*
X166059523Y-125707380D01*
X166154761Y-125802619D01*
X166202380Y-125945476D01*
X166202380Y-126183571D01*
X150372380Y-132952380D02*
X149800952Y-132952380D01*
X150086666Y-132952380D02*
X150086666Y-131952380D01*
X149991428Y-132095238D01*
X149896190Y-132190476D01*
X149800952Y-132238095D01*
X150991428Y-131952380D02*
X151086666Y-131952380D01*
X151181904Y-132000000D01*
X151229523Y-132047619D01*
X151277142Y-132142857D01*
X151324761Y-132333333D01*
X151324761Y-132571428D01*
X151277142Y-132761904D01*
X151229523Y-132857142D01*
X151181904Y-132904761D01*
X151086666Y-132952380D01*
X150991428Y-132952380D01*
X150896190Y-132904761D01*
X150848571Y-132857142D01*
X150800952Y-132761904D01*
X150753333Y-132571428D01*
X150753333Y-132333333D01*
X150800952Y-132142857D01*
X150848571Y-132047619D01*
X150896190Y-132000000D01*
X150991428Y-131952380D01*
X151753333Y-132952380D02*
X151753333Y-131952380D01*
X151848571Y-132571428D02*
X152134285Y-132952380D01*
X152134285Y-132285714D02*
X151753333Y-132666666D01*
X153277142Y-132952380D02*
X153515238Y-132952380D01*
X153515238Y-132761904D01*
X153420000Y-132714285D01*
X153324761Y-132619047D01*
X153277142Y-132476190D01*
X153277142Y-132238095D01*
X153324761Y-132095238D01*
X153420000Y-132000000D01*
X153562857Y-131952380D01*
X153753333Y-131952380D01*
X153896190Y-132000000D01*
X153991428Y-132095238D01*
X154039047Y-132238095D01*
X154039047Y-132476190D01*
X153991428Y-132619047D01*
X153896190Y-132714285D01*
X153800952Y-132761904D01*
X153800952Y-132952380D01*
X154039047Y-132952380D01*
X172029761Y-83142857D02*
X172077380Y-83000000D01*
X172077380Y-82761904D01*
X172029761Y-82666666D01*
X171982142Y-82619047D01*
X171886904Y-82571428D01*
X171791666Y-82571428D01*
X171696428Y-82619047D01*
X171648809Y-82666666D01*
X171601190Y-82761904D01*
X171553571Y-82952380D01*
X171505952Y-83047619D01*
X171458333Y-83095238D01*
X171363095Y-83142857D01*
X171267857Y-83142857D01*
X171172619Y-83095238D01*
X171125000Y-83047619D01*
X171077380Y-82952380D01*
X171077380Y-82714285D01*
X171125000Y-82571428D01*
X171410714Y-82285714D02*
X171410714Y-81904761D01*
X171077380Y-82142857D02*
X171934523Y-82142857D01*
X172029761Y-82095238D01*
X172077380Y-82000000D01*
X172077380Y-81904761D01*
X172077380Y-81571428D02*
X171410714Y-81571428D01*
X171601190Y-81571428D02*
X171505952Y-81523809D01*
X171458333Y-81476190D01*
X171410714Y-81380952D01*
X171410714Y-81285714D01*
X172077380Y-80809523D02*
X172029761Y-80904761D01*
X171982142Y-80952380D01*
X171886904Y-81000000D01*
X171601190Y-81000000D01*
X171505952Y-80952380D01*
X171458333Y-80904761D01*
X171410714Y-80809523D01*
X171410714Y-80666666D01*
X171458333Y-80571428D01*
X171505952Y-80523809D01*
X171601190Y-80476190D01*
X171886904Y-80476190D01*
X171982142Y-80523809D01*
X172029761Y-80571428D01*
X172077380Y-80666666D01*
X172077380Y-80809523D01*
X172077380Y-80047619D02*
X171410714Y-80047619D01*
X171505952Y-80047619D02*
X171458333Y-80000000D01*
X171410714Y-79904761D01*
X171410714Y-79761904D01*
X171458333Y-79666666D01*
X171553571Y-79619047D01*
X172077380Y-79619047D01*
X171553571Y-79619047D02*
X171458333Y-79571428D01*
X171410714Y-79476190D01*
X171410714Y-79333333D01*
X171458333Y-79238095D01*
X171553571Y-79190476D01*
X172077380Y-79190476D01*
X171696428Y-78714285D02*
X171696428Y-77952380D01*
X172029761Y-77523809D02*
X172077380Y-77380952D01*
X172077380Y-77142857D01*
X172029761Y-77047619D01*
X171982142Y-77000000D01*
X171886904Y-76952380D01*
X171791666Y-76952380D01*
X171696428Y-77000000D01*
X171648809Y-77047619D01*
X171601190Y-77142857D01*
X171553571Y-77333333D01*
X171505952Y-77428571D01*
X171458333Y-77476190D01*
X171363095Y-77523809D01*
X171267857Y-77523809D01*
X171172619Y-77476190D01*
X171125000Y-77428571D01*
X171077380Y-77333333D01*
X171077380Y-77095238D01*
X171125000Y-76952380D01*
X172029761Y-76142857D02*
X172077380Y-76238095D01*
X172077380Y-76428571D01*
X172029761Y-76523809D01*
X171934523Y-76571428D01*
X171553571Y-76571428D01*
X171458333Y-76523809D01*
X171410714Y-76428571D01*
X171410714Y-76238095D01*
X171458333Y-76142857D01*
X171553571Y-76095238D01*
X171648809Y-76095238D01*
X171744047Y-76571428D01*
X171410714Y-75666666D02*
X172077380Y-75666666D01*
X171505952Y-75666666D02*
X171458333Y-75619047D01*
X171410714Y-75523809D01*
X171410714Y-75380952D01*
X171458333Y-75285714D01*
X171553571Y-75238095D01*
X172077380Y-75238095D01*
X172029761Y-74809523D02*
X172077380Y-74714285D01*
X172077380Y-74523809D01*
X172029761Y-74428571D01*
X171934523Y-74380952D01*
X171886904Y-74380952D01*
X171791666Y-74428571D01*
X171744047Y-74523809D01*
X171744047Y-74666666D01*
X171696428Y-74761904D01*
X171601190Y-74809523D01*
X171553571Y-74809523D01*
X171458333Y-74761904D01*
X171410714Y-74666666D01*
X171410714Y-74523809D01*
X171458333Y-74428571D01*
X172077380Y-73809523D02*
X172029761Y-73904761D01*
X171982142Y-73952380D01*
X171886904Y-74000000D01*
X171601190Y-74000000D01*
X171505952Y-73952380D01*
X171458333Y-73904761D01*
X171410714Y-73809523D01*
X171410714Y-73666666D01*
X171458333Y-73571428D01*
X171505952Y-73523809D01*
X171601190Y-73476190D01*
X171886904Y-73476190D01*
X171982142Y-73523809D01*
X172029761Y-73571428D01*
X172077380Y-73666666D01*
X172077380Y-73809523D01*
X172077380Y-73047619D02*
X171410714Y-73047619D01*
X171601190Y-73047619D02*
X171505952Y-73000000D01*
X171458333Y-72952380D01*
X171410714Y-72857142D01*
X171410714Y-72761904D01*
X187238095Y-77250000D02*
X187142857Y-77202380D01*
X187000000Y-77202380D01*
X186857142Y-77250000D01*
X186761904Y-77345238D01*
X186714285Y-77440476D01*
X186666666Y-77630952D01*
X186666666Y-77773809D01*
X186714285Y-77964285D01*
X186761904Y-78059523D01*
X186857142Y-78154761D01*
X187000000Y-78202380D01*
X187095238Y-78202380D01*
X187238095Y-78154761D01*
X187285714Y-78107142D01*
X187285714Y-77773809D01*
X187095238Y-77773809D01*
X187714285Y-78202380D02*
X187714285Y-77202380D01*
X188285714Y-78202380D01*
X188285714Y-77202380D01*
X188761904Y-78202380D02*
X188761904Y-77202380D01*
X189000000Y-77202380D01*
X189142857Y-77250000D01*
X189238095Y-77345238D01*
X189285714Y-77440476D01*
X189333333Y-77630952D01*
X189333333Y-77773809D01*
X189285714Y-77964285D01*
X189238095Y-78059523D01*
X189142857Y-78154761D01*
X189000000Y-78202380D01*
X188761904Y-78202380D01*
X186666666Y-74702380D02*
X187000000Y-75702380D01*
X187333333Y-74702380D01*
X188238095Y-75607142D02*
X188190476Y-75654761D01*
X188047619Y-75702380D01*
X187952380Y-75702380D01*
X187809523Y-75654761D01*
X187714285Y-75559523D01*
X187666666Y-75464285D01*
X187619047Y-75273809D01*
X187619047Y-75130952D01*
X187666666Y-74940476D01*
X187714285Y-74845238D01*
X187809523Y-74750000D01*
X187952380Y-74702380D01*
X188047619Y-74702380D01*
X188190476Y-74750000D01*
X188238095Y-74797619D01*
X189238095Y-75607142D02*
X189190476Y-75654761D01*
X189047619Y-75702380D01*
X188952380Y-75702380D01*
X188809523Y-75654761D01*
X188714285Y-75559523D01*
X188666666Y-75464285D01*
X188619047Y-75273809D01*
X188619047Y-75130952D01*
X188666666Y-74940476D01*
X188714285Y-74845238D01*
X188809523Y-74750000D01*
X188952380Y-74702380D01*
X189047619Y-74702380D01*
X189190476Y-74750000D01*
X189238095Y-74797619D01*
X186761904Y-80702380D02*
X186761904Y-79702380D01*
X187000000Y-79702380D01*
X187142857Y-79750000D01*
X187238095Y-79845238D01*
X187285714Y-79940476D01*
X187333333Y-80130952D01*
X187333333Y-80273809D01*
X187285714Y-80464285D01*
X187238095Y-80559523D01*
X187142857Y-80654761D01*
X187000000Y-80702380D01*
X186761904Y-80702380D01*
X187952380Y-79702380D02*
X188047619Y-79702380D01*
X188142857Y-79750000D01*
X188190476Y-79797619D01*
X188238095Y-79892857D01*
X188285714Y-80083333D01*
X188285714Y-80321428D01*
X188238095Y-80511904D01*
X188190476Y-80607142D01*
X188142857Y-80654761D01*
X188047619Y-80702380D01*
X187952380Y-80702380D01*
X187857142Y-80654761D01*
X187809523Y-80607142D01*
X187761904Y-80511904D01*
X187714285Y-80321428D01*
X187714285Y-80083333D01*
X187761904Y-79892857D01*
X187809523Y-79797619D01*
X187857142Y-79750000D01*
X187952380Y-79702380D01*
X165713571Y-110320238D02*
X165713571Y-109986904D01*
X166237380Y-109844047D02*
X166237380Y-110320238D01*
X165237380Y-110320238D01*
X165237380Y-109844047D01*
X166189761Y-109463095D02*
X166237380Y-109320238D01*
X166237380Y-109082142D01*
X166189761Y-108986904D01*
X166142142Y-108939285D01*
X166046904Y-108891666D01*
X165951666Y-108891666D01*
X165856428Y-108939285D01*
X165808809Y-108986904D01*
X165761190Y-109082142D01*
X165713571Y-109272619D01*
X165665952Y-109367857D01*
X165618333Y-109415476D01*
X165523095Y-109463095D01*
X165427857Y-109463095D01*
X165332619Y-109415476D01*
X165285000Y-109367857D01*
X165237380Y-109272619D01*
X165237380Y-109034523D01*
X165285000Y-108891666D01*
X166237380Y-108463095D02*
X165237380Y-108463095D01*
X165237380Y-108082142D01*
X165285000Y-107986904D01*
X165332619Y-107939285D01*
X165427857Y-107891666D01*
X165570714Y-107891666D01*
X165665952Y-107939285D01*
X165713571Y-107986904D01*
X165761190Y-108082142D01*
X165761190Y-108463095D01*
X165237380Y-107558333D02*
X165237380Y-106939285D01*
X165618333Y-107272619D01*
X165618333Y-107129761D01*
X165665952Y-107034523D01*
X165713571Y-106986904D01*
X165808809Y-106939285D01*
X166046904Y-106939285D01*
X166142142Y-106986904D01*
X166189761Y-107034523D01*
X166237380Y-107129761D01*
X166237380Y-107415476D01*
X166189761Y-107510714D01*
X166142142Y-107558333D01*
X165332619Y-106558333D02*
X165285000Y-106510714D01*
X165237380Y-106415476D01*
X165237380Y-106177380D01*
X165285000Y-106082142D01*
X165332619Y-106034523D01*
X165427857Y-105986904D01*
X165523095Y-105986904D01*
X165665952Y-106034523D01*
X166237380Y-106605952D01*
X166237380Y-105986904D01*
X165856428Y-105558333D02*
X165856428Y-104796428D01*
X166237380Y-104320238D02*
X165237380Y-104320238D01*
X165237380Y-104082142D01*
X165285000Y-103939285D01*
X165380238Y-103844047D01*
X165475476Y-103796428D01*
X165665952Y-103748809D01*
X165808809Y-103748809D01*
X165999285Y-103796428D01*
X166094523Y-103844047D01*
X166189761Y-103939285D01*
X166237380Y-104082142D01*
X166237380Y-104320238D01*
X166189761Y-102939285D02*
X166237380Y-103034523D01*
X166237380Y-103225000D01*
X166189761Y-103320238D01*
X166094523Y-103367857D01*
X165713571Y-103367857D01*
X165618333Y-103320238D01*
X165570714Y-103225000D01*
X165570714Y-103034523D01*
X165618333Y-102939285D01*
X165713571Y-102891666D01*
X165808809Y-102891666D01*
X165904047Y-103367857D01*
X165570714Y-102558333D02*
X166237380Y-102320238D01*
X165570714Y-102082142D01*
X166237380Y-101701190D02*
X165237380Y-101701190D01*
X166237380Y-101129761D02*
X165665952Y-101558333D01*
X165237380Y-101129761D02*
X165808809Y-101701190D01*
X166237380Y-100701190D02*
X165570714Y-100701190D01*
X165237380Y-100701190D02*
X165285000Y-100748809D01*
X165332619Y-100701190D01*
X165285000Y-100653571D01*
X165237380Y-100701190D01*
X165332619Y-100701190D01*
X165570714Y-100367857D02*
X165570714Y-99986904D01*
X165237380Y-100225000D02*
X166094523Y-100225000D01*
X166189761Y-100177380D01*
X166237380Y-100082142D01*
X166237380Y-99986904D01*
X166142142Y-99082142D02*
X166189761Y-99129761D01*
X166237380Y-99272619D01*
X166237380Y-99367857D01*
X166189761Y-99510714D01*
X166094523Y-99605952D01*
X165999285Y-99653571D01*
X165808809Y-99701190D01*
X165665952Y-99701190D01*
X165475476Y-99653571D01*
X165380238Y-99605952D01*
X165285000Y-99510714D01*
X165237380Y-99367857D01*
X165237380Y-99272619D01*
X165285000Y-99129761D01*
X165332619Y-99082142D01*
X148891666Y-115990833D02*
X149591666Y-115757500D01*
X148891666Y-115524166D01*
X149591666Y-115290833D02*
X148891666Y-115290833D01*
X149591666Y-114890833D01*
X148891666Y-114890833D01*
X148858333Y-114057500D02*
X149758333Y-114657500D01*
X148925000Y-113457500D02*
X148891666Y-113524166D01*
X148891666Y-113624166D01*
X148925000Y-113724166D01*
X148991666Y-113790833D01*
X149058333Y-113824166D01*
X149191666Y-113857500D01*
X149291666Y-113857500D01*
X149425000Y-113824166D01*
X149491666Y-113790833D01*
X149558333Y-113724166D01*
X149591666Y-113624166D01*
X149591666Y-113557500D01*
X149558333Y-113457500D01*
X149525000Y-113424166D01*
X149291666Y-113424166D01*
X149291666Y-113557500D01*
X149591666Y-113124166D02*
X148891666Y-113124166D01*
X148891666Y-112857500D01*
X148925000Y-112790833D01*
X148958333Y-112757500D01*
X149025000Y-112724166D01*
X149125000Y-112724166D01*
X149191666Y-112757500D01*
X149225000Y-112790833D01*
X149258333Y-112857500D01*
X149258333Y-113124166D01*
X149591666Y-112424166D02*
X148891666Y-112424166D01*
X148891666Y-111957500D02*
X148891666Y-111824166D01*
X148925000Y-111757500D01*
X148991666Y-111690833D01*
X149125000Y-111657500D01*
X149358333Y-111657500D01*
X149491666Y-111690833D01*
X149558333Y-111757500D01*
X149591666Y-111824166D01*
X149591666Y-111957500D01*
X149558333Y-112024166D01*
X149491666Y-112090833D01*
X149358333Y-112124166D01*
X149125000Y-112124166D01*
X148991666Y-112090833D01*
X148925000Y-112024166D01*
X148891666Y-111957500D01*
X148891666Y-111424166D02*
X148891666Y-110990833D01*
X149158333Y-111224166D01*
X149158333Y-111124166D01*
X149191666Y-111057500D01*
X149225000Y-111024166D01*
X149291666Y-110990833D01*
X149458333Y-110990833D01*
X149525000Y-111024166D01*
X149558333Y-111057500D01*
X149591666Y-111124166D01*
X149591666Y-111324166D01*
X149558333Y-111390833D01*
X149525000Y-111424166D01*
X149591666Y-110657500D02*
X149591666Y-110524166D01*
X149558333Y-110457500D01*
X149525000Y-110424166D01*
X149425000Y-110357500D01*
X149291666Y-110324166D01*
X149025000Y-110324166D01*
X148958333Y-110357500D01*
X148925000Y-110390833D01*
X148891666Y-110457500D01*
X148891666Y-110590833D01*
X148925000Y-110657500D01*
X148958333Y-110690833D01*
X149025000Y-110724166D01*
X149191666Y-110724166D01*
X149258333Y-110690833D01*
X149291666Y-110657500D01*
X149325000Y-110590833D01*
X149325000Y-110457500D01*
X149291666Y-110390833D01*
X149258333Y-110357500D01*
X149191666Y-110324166D01*
X154005000Y-115524166D02*
X153971666Y-115590833D01*
X153971666Y-115690833D01*
X154005000Y-115790833D01*
X154071666Y-115857500D01*
X154138333Y-115890833D01*
X154271666Y-115924166D01*
X154371666Y-115924166D01*
X154505000Y-115890833D01*
X154571666Y-115857500D01*
X154638333Y-115790833D01*
X154671666Y-115690833D01*
X154671666Y-115624166D01*
X154638333Y-115524166D01*
X154605000Y-115490833D01*
X154371666Y-115490833D01*
X154371666Y-115624166D01*
X154671666Y-115190833D02*
X153971666Y-115190833D01*
X153971666Y-114924166D01*
X154005000Y-114857500D01*
X154038333Y-114824166D01*
X154105000Y-114790833D01*
X154205000Y-114790833D01*
X154271666Y-114824166D01*
X154305000Y-114857500D01*
X154338333Y-114924166D01*
X154338333Y-115190833D01*
X154671666Y-114490833D02*
X153971666Y-114490833D01*
X153971666Y-114024166D02*
X153971666Y-113890833D01*
X154005000Y-113824166D01*
X154071666Y-113757500D01*
X154205000Y-113724166D01*
X154438333Y-113724166D01*
X154571666Y-113757500D01*
X154638333Y-113824166D01*
X154671666Y-113890833D01*
X154671666Y-114024166D01*
X154638333Y-114090833D01*
X154571666Y-114157500D01*
X154438333Y-114190833D01*
X154205000Y-114190833D01*
X154071666Y-114157500D01*
X154005000Y-114090833D01*
X153971666Y-114024166D01*
X153971666Y-113490833D02*
X153971666Y-113057500D01*
X154238333Y-113290833D01*
X154238333Y-113190833D01*
X154271666Y-113124166D01*
X154305000Y-113090833D01*
X154371666Y-113057500D01*
X154538333Y-113057500D01*
X154605000Y-113090833D01*
X154638333Y-113124166D01*
X154671666Y-113190833D01*
X154671666Y-113390833D01*
X154638333Y-113457500D01*
X154605000Y-113490833D01*
X153971666Y-112424166D02*
X153971666Y-112757500D01*
X154305000Y-112790833D01*
X154271666Y-112757500D01*
X154238333Y-112690833D01*
X154238333Y-112524166D01*
X154271666Y-112457500D01*
X154305000Y-112424166D01*
X154371666Y-112390833D01*
X154538333Y-112390833D01*
X154605000Y-112424166D01*
X154638333Y-112457500D01*
X154671666Y-112524166D01*
X154671666Y-112690833D01*
X154638333Y-112757500D01*
X154605000Y-112790833D01*
X182611666Y-115890833D02*
X181911666Y-115890833D01*
X181911666Y-115724166D01*
X181945000Y-115624166D01*
X182011666Y-115557500D01*
X182078333Y-115524166D01*
X182211666Y-115490833D01*
X182311666Y-115490833D01*
X182445000Y-115524166D01*
X182511666Y-115557500D01*
X182578333Y-115624166D01*
X182611666Y-115724166D01*
X182611666Y-115890833D01*
X181911666Y-115257500D02*
X181911666Y-114824166D01*
X182178333Y-115057500D01*
X182178333Y-114957500D01*
X182211666Y-114890833D01*
X182245000Y-114857500D01*
X182311666Y-114824166D01*
X182478333Y-114824166D01*
X182545000Y-114857500D01*
X182578333Y-114890833D01*
X182611666Y-114957500D01*
X182611666Y-115157500D01*
X182578333Y-115224166D01*
X182545000Y-115257500D01*
X179405000Y-100159166D02*
X179371666Y-100225833D01*
X179371666Y-100325833D01*
X179405000Y-100425833D01*
X179471666Y-100492500D01*
X179538333Y-100525833D01*
X179671666Y-100559166D01*
X179771666Y-100559166D01*
X179905000Y-100525833D01*
X179971666Y-100492500D01*
X180038333Y-100425833D01*
X180071666Y-100325833D01*
X180071666Y-100259166D01*
X180038333Y-100159166D01*
X180005000Y-100125833D01*
X179771666Y-100125833D01*
X179771666Y-100259166D01*
X180071666Y-99825833D02*
X179371666Y-99825833D01*
X179371666Y-99559166D01*
X179405000Y-99492500D01*
X179438333Y-99459166D01*
X179505000Y-99425833D01*
X179605000Y-99425833D01*
X179671666Y-99459166D01*
X179705000Y-99492500D01*
X179738333Y-99559166D01*
X179738333Y-99825833D01*
X180071666Y-99125833D02*
X179371666Y-99125833D01*
X179371666Y-98659166D02*
X179371666Y-98525833D01*
X179405000Y-98459166D01*
X179471666Y-98392500D01*
X179605000Y-98359166D01*
X179838333Y-98359166D01*
X179971666Y-98392500D01*
X180038333Y-98459166D01*
X180071666Y-98525833D01*
X180071666Y-98659166D01*
X180038333Y-98725833D01*
X179971666Y-98792500D01*
X179838333Y-98825833D01*
X179605000Y-98825833D01*
X179471666Y-98792500D01*
X179405000Y-98725833D01*
X179371666Y-98659166D01*
X180071666Y-97692500D02*
X180071666Y-98092500D01*
X180071666Y-97892500D02*
X179371666Y-97892500D01*
X179471666Y-97959166D01*
X179538333Y-98025833D01*
X179571666Y-98092500D01*
X179371666Y-97059166D02*
X179371666Y-97392500D01*
X179705000Y-97425833D01*
X179671666Y-97392500D01*
X179638333Y-97325833D01*
X179638333Y-97159166D01*
X179671666Y-97092500D01*
X179705000Y-97059166D01*
X179771666Y-97025833D01*
X179938333Y-97025833D01*
X180005000Y-97059166D01*
X180038333Y-97092500D01*
X180071666Y-97159166D01*
X180071666Y-97325833D01*
X180038333Y-97392500D01*
X180005000Y-97425833D01*
X179338333Y-96225833D02*
X180238333Y-96825833D01*
X180071666Y-95992500D02*
X179371666Y-95992500D01*
X179871666Y-95759166D01*
X179371666Y-95525833D01*
X180071666Y-95525833D01*
X179371666Y-95292500D02*
X179371666Y-94892500D01*
X180071666Y-95092500D02*
X179371666Y-95092500D01*
X180071666Y-94659166D02*
X179371666Y-94659166D01*
X179371666Y-94492500D01*
X179405000Y-94392500D01*
X179471666Y-94325833D01*
X179538333Y-94292500D01*
X179671666Y-94259166D01*
X179771666Y-94259166D01*
X179905000Y-94292500D01*
X179971666Y-94325833D01*
X180038333Y-94392500D01*
X180071666Y-94492500D01*
X180071666Y-94659166D01*
X179371666Y-93825833D02*
X179371666Y-93692500D01*
X179405000Y-93625833D01*
X179471666Y-93559166D01*
X179605000Y-93525833D01*
X179838333Y-93525833D01*
X179971666Y-93559166D01*
X180038333Y-93625833D01*
X180071666Y-93692500D01*
X180071666Y-93825833D01*
X180038333Y-93892500D01*
X179971666Y-93959166D01*
X179838333Y-93992500D01*
X179605000Y-93992500D01*
X179471666Y-93959166D01*
X179405000Y-93892500D01*
X179371666Y-93825833D01*
X185085000Y-115490833D02*
X185118333Y-115524166D01*
X185151666Y-115624166D01*
X185151666Y-115690833D01*
X185118333Y-115790833D01*
X185051666Y-115857500D01*
X184985000Y-115890833D01*
X184851666Y-115924166D01*
X184751666Y-115924166D01*
X184618333Y-115890833D01*
X184551666Y-115857500D01*
X184485000Y-115790833D01*
X184451666Y-115690833D01*
X184451666Y-115624166D01*
X184485000Y-115524166D01*
X184518333Y-115490833D01*
X185151666Y-115190833D02*
X184451666Y-115190833D01*
X184951666Y-114957500D01*
X184451666Y-114724166D01*
X185151666Y-114724166D01*
X185151666Y-114390833D02*
X184451666Y-114390833D01*
X184451666Y-114224166D01*
X184485000Y-114124166D01*
X184551666Y-114057500D01*
X184618333Y-114024166D01*
X184751666Y-113990833D01*
X184851666Y-113990833D01*
X184985000Y-114024166D01*
X185051666Y-114057500D01*
X185118333Y-114124166D01*
X185151666Y-114224166D01*
X185151666Y-114390833D01*
X171785000Y-115524166D02*
X171751666Y-115590833D01*
X171751666Y-115690833D01*
X171785000Y-115790833D01*
X171851666Y-115857500D01*
X171918333Y-115890833D01*
X172051666Y-115924166D01*
X172151666Y-115924166D01*
X172285000Y-115890833D01*
X172351666Y-115857500D01*
X172418333Y-115790833D01*
X172451666Y-115690833D01*
X172451666Y-115624166D01*
X172418333Y-115524166D01*
X172385000Y-115490833D01*
X172151666Y-115490833D01*
X172151666Y-115624166D01*
X172451666Y-115190833D02*
X171751666Y-115190833D01*
X171751666Y-114924166D01*
X171785000Y-114857500D01*
X171818333Y-114824166D01*
X171885000Y-114790833D01*
X171985000Y-114790833D01*
X172051666Y-114824166D01*
X172085000Y-114857500D01*
X172118333Y-114924166D01*
X172118333Y-115190833D01*
X172451666Y-114490833D02*
X171751666Y-114490833D01*
X171751666Y-114024166D02*
X171751666Y-113890833D01*
X171785000Y-113824166D01*
X171851666Y-113757500D01*
X171985000Y-113724166D01*
X172218333Y-113724166D01*
X172351666Y-113757500D01*
X172418333Y-113824166D01*
X172451666Y-113890833D01*
X172451666Y-114024166D01*
X172418333Y-114090833D01*
X172351666Y-114157500D01*
X172218333Y-114190833D01*
X171985000Y-114190833D01*
X171851666Y-114157500D01*
X171785000Y-114090833D01*
X171751666Y-114024166D01*
X172451666Y-113057500D02*
X172451666Y-113457500D01*
X172451666Y-113257500D02*
X171751666Y-113257500D01*
X171851666Y-113324166D01*
X171918333Y-113390833D01*
X171951666Y-113457500D01*
X171818333Y-112790833D02*
X171785000Y-112757500D01*
X171751666Y-112690833D01*
X171751666Y-112524166D01*
X171785000Y-112457500D01*
X171818333Y-112424166D01*
X171885000Y-112390833D01*
X171951666Y-112390833D01*
X172051666Y-112424166D01*
X172451666Y-112824166D01*
X172451666Y-112390833D01*
X171718333Y-111590833D02*
X172618333Y-112190833D01*
X172451666Y-111357500D02*
X171751666Y-111357500D01*
X172251666Y-111124166D01*
X171751666Y-110890833D01*
X172451666Y-110890833D01*
X171751666Y-110657500D02*
X171751666Y-110257500D01*
X172451666Y-110457500D02*
X171751666Y-110457500D01*
X172451666Y-110024166D02*
X171751666Y-110024166D01*
X171751666Y-109857500D01*
X171785000Y-109757500D01*
X171851666Y-109690833D01*
X171918333Y-109657500D01*
X172051666Y-109624166D01*
X172151666Y-109624166D01*
X172285000Y-109657500D01*
X172351666Y-109690833D01*
X172418333Y-109757500D01*
X172451666Y-109857500D01*
X172451666Y-110024166D01*
X172451666Y-109324166D02*
X171751666Y-109324166D01*
X154005000Y-96659166D02*
X153971666Y-96725833D01*
X153971666Y-96825833D01*
X154005000Y-96925833D01*
X154071666Y-96992500D01*
X154138333Y-97025833D01*
X154271666Y-97059166D01*
X154371666Y-97059166D01*
X154505000Y-97025833D01*
X154571666Y-96992500D01*
X154638333Y-96925833D01*
X154671666Y-96825833D01*
X154671666Y-96759166D01*
X154638333Y-96659166D01*
X154605000Y-96625833D01*
X154371666Y-96625833D01*
X154371666Y-96759166D01*
X154671666Y-96325833D02*
X153971666Y-96325833D01*
X153971666Y-96059166D01*
X154005000Y-95992500D01*
X154038333Y-95959166D01*
X154105000Y-95925833D01*
X154205000Y-95925833D01*
X154271666Y-95959166D01*
X154305000Y-95992500D01*
X154338333Y-96059166D01*
X154338333Y-96325833D01*
X154671666Y-95625833D02*
X153971666Y-95625833D01*
X153971666Y-95159166D02*
X153971666Y-95025833D01*
X154005000Y-94959166D01*
X154071666Y-94892500D01*
X154205000Y-94859166D01*
X154438333Y-94859166D01*
X154571666Y-94892500D01*
X154638333Y-94959166D01*
X154671666Y-95025833D01*
X154671666Y-95159166D01*
X154638333Y-95225833D01*
X154571666Y-95292500D01*
X154438333Y-95325833D01*
X154205000Y-95325833D01*
X154071666Y-95292500D01*
X154005000Y-95225833D01*
X153971666Y-95159166D01*
X154038333Y-94592500D02*
X154005000Y-94559166D01*
X153971666Y-94492500D01*
X153971666Y-94325833D01*
X154005000Y-94259166D01*
X154038333Y-94225833D01*
X154105000Y-94192500D01*
X154171666Y-94192500D01*
X154271666Y-94225833D01*
X154671666Y-94625833D01*
X154671666Y-94192500D01*
X154671666Y-93525833D02*
X154671666Y-93925833D01*
X154671666Y-93725833D02*
X153971666Y-93725833D01*
X154071666Y-93792500D01*
X154138333Y-93859166D01*
X154171666Y-93925833D01*
X141155000Y-95678214D02*
X141107380Y-95773452D01*
X141107380Y-95916309D01*
X141155000Y-96059166D01*
X141250238Y-96154404D01*
X141345476Y-96202023D01*
X141535952Y-96249642D01*
X141678809Y-96249642D01*
X141869285Y-96202023D01*
X141964523Y-96154404D01*
X142059761Y-96059166D01*
X142107380Y-95916309D01*
X142107380Y-95821071D01*
X142059761Y-95678214D01*
X142012142Y-95630595D01*
X141678809Y-95630595D01*
X141678809Y-95821071D01*
X142107380Y-95202023D02*
X141107380Y-95202023D01*
X142107380Y-94630595D01*
X141107380Y-94630595D01*
X142107380Y-94154404D02*
X141107380Y-94154404D01*
X141107380Y-93916309D01*
X141155000Y-93773452D01*
X141250238Y-93678214D01*
X141345476Y-93630595D01*
X141535952Y-93582976D01*
X141678809Y-93582976D01*
X141869285Y-93630595D01*
X141964523Y-93678214D01*
X142059761Y-93773452D01*
X142107380Y-93916309D01*
X142107380Y-94154404D01*
X166705000Y-115524166D02*
X166671666Y-115590833D01*
X166671666Y-115690833D01*
X166705000Y-115790833D01*
X166771666Y-115857500D01*
X166838333Y-115890833D01*
X166971666Y-115924166D01*
X167071666Y-115924166D01*
X167205000Y-115890833D01*
X167271666Y-115857500D01*
X167338333Y-115790833D01*
X167371666Y-115690833D01*
X167371666Y-115624166D01*
X167338333Y-115524166D01*
X167305000Y-115490833D01*
X167071666Y-115490833D01*
X167071666Y-115624166D01*
X167371666Y-115190833D02*
X166671666Y-115190833D01*
X166671666Y-114924166D01*
X166705000Y-114857500D01*
X166738333Y-114824166D01*
X166805000Y-114790833D01*
X166905000Y-114790833D01*
X166971666Y-114824166D01*
X167005000Y-114857500D01*
X167038333Y-114924166D01*
X167038333Y-115190833D01*
X167371666Y-114490833D02*
X166671666Y-114490833D01*
X166671666Y-114024166D02*
X166671666Y-113890833D01*
X166705000Y-113824166D01*
X166771666Y-113757500D01*
X166905000Y-113724166D01*
X167138333Y-113724166D01*
X167271666Y-113757500D01*
X167338333Y-113824166D01*
X167371666Y-113890833D01*
X167371666Y-114024166D01*
X167338333Y-114090833D01*
X167271666Y-114157500D01*
X167138333Y-114190833D01*
X166905000Y-114190833D01*
X166771666Y-114157500D01*
X166705000Y-114090833D01*
X166671666Y-114024166D01*
X166738333Y-113457500D02*
X166705000Y-113424166D01*
X166671666Y-113357500D01*
X166671666Y-113190833D01*
X166705000Y-113124166D01*
X166738333Y-113090833D01*
X166805000Y-113057500D01*
X166871666Y-113057500D01*
X166971666Y-113090833D01*
X167371666Y-113490833D01*
X167371666Y-113057500D01*
X166671666Y-112824166D02*
X166671666Y-112357500D01*
X167371666Y-112657500D01*
X180071666Y-115890833D02*
X179371666Y-115890833D01*
X179371666Y-115724166D01*
X179405000Y-115624166D01*
X179471666Y-115557500D01*
X179538333Y-115524166D01*
X179671666Y-115490833D01*
X179771666Y-115490833D01*
X179905000Y-115524166D01*
X179971666Y-115557500D01*
X180038333Y-115624166D01*
X180071666Y-115724166D01*
X180071666Y-115890833D01*
X179438333Y-115224166D02*
X179405000Y-115190833D01*
X179371666Y-115124166D01*
X179371666Y-114957500D01*
X179405000Y-114890833D01*
X179438333Y-114857500D01*
X179505000Y-114824166D01*
X179571666Y-114824166D01*
X179671666Y-114857500D01*
X180071666Y-115257500D01*
X180071666Y-114824166D01*
X171785000Y-95992500D02*
X171751666Y-96059166D01*
X171751666Y-96159166D01*
X171785000Y-96259166D01*
X171851666Y-96325833D01*
X171918333Y-96359166D01*
X172051666Y-96392500D01*
X172151666Y-96392500D01*
X172285000Y-96359166D01*
X172351666Y-96325833D01*
X172418333Y-96259166D01*
X172451666Y-96159166D01*
X172451666Y-96092500D01*
X172418333Y-95992500D01*
X172385000Y-95959166D01*
X172151666Y-95959166D01*
X172151666Y-96092500D01*
X172451666Y-95659166D02*
X171751666Y-95659166D01*
X171751666Y-95392500D01*
X171785000Y-95325833D01*
X171818333Y-95292500D01*
X171885000Y-95259166D01*
X171985000Y-95259166D01*
X172051666Y-95292500D01*
X172085000Y-95325833D01*
X172118333Y-95392500D01*
X172118333Y-95659166D01*
X172451666Y-94959166D02*
X171751666Y-94959166D01*
X171751666Y-94492500D02*
X171751666Y-94359166D01*
X171785000Y-94292500D01*
X171851666Y-94225833D01*
X171985000Y-94192500D01*
X172218333Y-94192500D01*
X172351666Y-94225833D01*
X172418333Y-94292500D01*
X172451666Y-94359166D01*
X172451666Y-94492500D01*
X172418333Y-94559166D01*
X172351666Y-94625833D01*
X172218333Y-94659166D01*
X171985000Y-94659166D01*
X171851666Y-94625833D01*
X171785000Y-94559166D01*
X171751666Y-94492500D01*
X171985000Y-93592500D02*
X172451666Y-93592500D01*
X171718333Y-93759166D02*
X172218333Y-93925833D01*
X172218333Y-93492500D01*
X161625000Y-96659166D02*
X161591666Y-96725833D01*
X161591666Y-96825833D01*
X161625000Y-96925833D01*
X161691666Y-96992500D01*
X161758333Y-97025833D01*
X161891666Y-97059166D01*
X161991666Y-97059166D01*
X162125000Y-97025833D01*
X162191666Y-96992500D01*
X162258333Y-96925833D01*
X162291666Y-96825833D01*
X162291666Y-96759166D01*
X162258333Y-96659166D01*
X162225000Y-96625833D01*
X161991666Y-96625833D01*
X161991666Y-96759166D01*
X162291666Y-96325833D02*
X161591666Y-96325833D01*
X161591666Y-96059166D01*
X161625000Y-95992500D01*
X161658333Y-95959166D01*
X161725000Y-95925833D01*
X161825000Y-95925833D01*
X161891666Y-95959166D01*
X161925000Y-95992500D01*
X161958333Y-96059166D01*
X161958333Y-96325833D01*
X162291666Y-95625833D02*
X161591666Y-95625833D01*
X161591666Y-95159166D02*
X161591666Y-95025833D01*
X161625000Y-94959166D01*
X161691666Y-94892500D01*
X161825000Y-94859166D01*
X162058333Y-94859166D01*
X162191666Y-94892500D01*
X162258333Y-94959166D01*
X162291666Y-95025833D01*
X162291666Y-95159166D01*
X162258333Y-95225833D01*
X162191666Y-95292500D01*
X162058333Y-95325833D01*
X161825000Y-95325833D01*
X161691666Y-95292500D01*
X161625000Y-95225833D01*
X161591666Y-95159166D01*
X162291666Y-94192500D02*
X162291666Y-94592500D01*
X162291666Y-94392500D02*
X161591666Y-94392500D01*
X161691666Y-94459166D01*
X161758333Y-94525833D01*
X161791666Y-94592500D01*
X161891666Y-93792500D02*
X161858333Y-93859166D01*
X161825000Y-93892500D01*
X161758333Y-93925833D01*
X161725000Y-93925833D01*
X161658333Y-93892500D01*
X161625000Y-93859166D01*
X161591666Y-93792500D01*
X161591666Y-93659166D01*
X161625000Y-93592500D01*
X161658333Y-93559166D01*
X161725000Y-93525833D01*
X161758333Y-93525833D01*
X161825000Y-93559166D01*
X161858333Y-93592500D01*
X161891666Y-93659166D01*
X161891666Y-93792500D01*
X161925000Y-93859166D01*
X161958333Y-93892500D01*
X162025000Y-93925833D01*
X162158333Y-93925833D01*
X162225000Y-93892500D01*
X162258333Y-93859166D01*
X162291666Y-93792500D01*
X162291666Y-93659166D01*
X162258333Y-93592500D01*
X162225000Y-93559166D01*
X162158333Y-93525833D01*
X162025000Y-93525833D01*
X161958333Y-93559166D01*
X161925000Y-93592500D01*
X161891666Y-93659166D01*
X164165000Y-95992500D02*
X164131666Y-96059166D01*
X164131666Y-96159166D01*
X164165000Y-96259166D01*
X164231666Y-96325833D01*
X164298333Y-96359166D01*
X164431666Y-96392500D01*
X164531666Y-96392500D01*
X164665000Y-96359166D01*
X164731666Y-96325833D01*
X164798333Y-96259166D01*
X164831666Y-96159166D01*
X164831666Y-96092500D01*
X164798333Y-95992500D01*
X164765000Y-95959166D01*
X164531666Y-95959166D01*
X164531666Y-96092500D01*
X164831666Y-95659166D02*
X164131666Y-95659166D01*
X164131666Y-95392500D01*
X164165000Y-95325833D01*
X164198333Y-95292500D01*
X164265000Y-95259166D01*
X164365000Y-95259166D01*
X164431666Y-95292500D01*
X164465000Y-95325833D01*
X164498333Y-95392500D01*
X164498333Y-95659166D01*
X164831666Y-94959166D02*
X164131666Y-94959166D01*
X164131666Y-94492500D02*
X164131666Y-94359166D01*
X164165000Y-94292500D01*
X164231666Y-94225833D01*
X164365000Y-94192500D01*
X164598333Y-94192500D01*
X164731666Y-94225833D01*
X164798333Y-94292500D01*
X164831666Y-94359166D01*
X164831666Y-94492500D01*
X164798333Y-94559166D01*
X164731666Y-94625833D01*
X164598333Y-94659166D01*
X164365000Y-94659166D01*
X164231666Y-94625833D01*
X164165000Y-94559166D01*
X164131666Y-94492500D01*
X164131666Y-93559166D02*
X164131666Y-93892500D01*
X164465000Y-93925833D01*
X164431666Y-93892500D01*
X164398333Y-93825833D01*
X164398333Y-93659166D01*
X164431666Y-93592500D01*
X164465000Y-93559166D01*
X164531666Y-93525833D01*
X164698333Y-93525833D01*
X164765000Y-93559166D01*
X164798333Y-93592500D01*
X164831666Y-93659166D01*
X164831666Y-93825833D01*
X164798333Y-93892500D01*
X164765000Y-93925833D01*
X176865000Y-115524166D02*
X176831666Y-115590833D01*
X176831666Y-115690833D01*
X176865000Y-115790833D01*
X176931666Y-115857500D01*
X176998333Y-115890833D01*
X177131666Y-115924166D01*
X177231666Y-115924166D01*
X177365000Y-115890833D01*
X177431666Y-115857500D01*
X177498333Y-115790833D01*
X177531666Y-115690833D01*
X177531666Y-115624166D01*
X177498333Y-115524166D01*
X177465000Y-115490833D01*
X177231666Y-115490833D01*
X177231666Y-115624166D01*
X177531666Y-115190833D02*
X176831666Y-115190833D01*
X176831666Y-114924166D01*
X176865000Y-114857500D01*
X176898333Y-114824166D01*
X176965000Y-114790833D01*
X177065000Y-114790833D01*
X177131666Y-114824166D01*
X177165000Y-114857500D01*
X177198333Y-114924166D01*
X177198333Y-115190833D01*
X177531666Y-114490833D02*
X176831666Y-114490833D01*
X176831666Y-114024166D02*
X176831666Y-113890833D01*
X176865000Y-113824166D01*
X176931666Y-113757500D01*
X177065000Y-113724166D01*
X177298333Y-113724166D01*
X177431666Y-113757500D01*
X177498333Y-113824166D01*
X177531666Y-113890833D01*
X177531666Y-114024166D01*
X177498333Y-114090833D01*
X177431666Y-114157500D01*
X177298333Y-114190833D01*
X177065000Y-114190833D01*
X176931666Y-114157500D01*
X176865000Y-114090833D01*
X176831666Y-114024166D01*
X177531666Y-113057500D02*
X177531666Y-113457500D01*
X177531666Y-113257500D02*
X176831666Y-113257500D01*
X176931666Y-113324166D01*
X176998333Y-113390833D01*
X177031666Y-113457500D01*
X176831666Y-112824166D02*
X176831666Y-112390833D01*
X177098333Y-112624166D01*
X177098333Y-112524166D01*
X177131666Y-112457500D01*
X177165000Y-112424166D01*
X177231666Y-112390833D01*
X177398333Y-112390833D01*
X177465000Y-112424166D01*
X177498333Y-112457500D01*
X177531666Y-112524166D01*
X177531666Y-112724166D01*
X177498333Y-112790833D01*
X177465000Y-112824166D01*
X176798333Y-111590833D02*
X177698333Y-112190833D01*
X177531666Y-111357500D02*
X176831666Y-111357500D01*
X177331666Y-111124166D01*
X176831666Y-110890833D01*
X177531666Y-110890833D01*
X176831666Y-110657500D02*
X176831666Y-110257500D01*
X177531666Y-110457500D02*
X176831666Y-110457500D01*
X177465000Y-109624166D02*
X177498333Y-109657500D01*
X177531666Y-109757500D01*
X177531666Y-109824166D01*
X177498333Y-109924166D01*
X177431666Y-109990833D01*
X177365000Y-110024166D01*
X177231666Y-110057500D01*
X177131666Y-110057500D01*
X176998333Y-110024166D01*
X176931666Y-109990833D01*
X176865000Y-109924166D01*
X176831666Y-109824166D01*
X176831666Y-109757500D01*
X176865000Y-109657500D01*
X176898333Y-109624166D01*
X177531666Y-109324166D02*
X176831666Y-109324166D01*
X177531666Y-108924166D02*
X177131666Y-109224166D01*
X176831666Y-108924166D02*
X177231666Y-109324166D01*
X176865000Y-95992500D02*
X176831666Y-96059166D01*
X176831666Y-96159166D01*
X176865000Y-96259166D01*
X176931666Y-96325833D01*
X176998333Y-96359166D01*
X177131666Y-96392500D01*
X177231666Y-96392500D01*
X177365000Y-96359166D01*
X177431666Y-96325833D01*
X177498333Y-96259166D01*
X177531666Y-96159166D01*
X177531666Y-96092500D01*
X177498333Y-95992500D01*
X177465000Y-95959166D01*
X177231666Y-95959166D01*
X177231666Y-96092500D01*
X177531666Y-95659166D02*
X176831666Y-95659166D01*
X176831666Y-95392500D01*
X176865000Y-95325833D01*
X176898333Y-95292500D01*
X176965000Y-95259166D01*
X177065000Y-95259166D01*
X177131666Y-95292500D01*
X177165000Y-95325833D01*
X177198333Y-95392500D01*
X177198333Y-95659166D01*
X177531666Y-94959166D02*
X176831666Y-94959166D01*
X176831666Y-94492500D02*
X176831666Y-94359166D01*
X176865000Y-94292500D01*
X176931666Y-94225833D01*
X177065000Y-94192500D01*
X177298333Y-94192500D01*
X177431666Y-94225833D01*
X177498333Y-94292500D01*
X177531666Y-94359166D01*
X177531666Y-94492500D01*
X177498333Y-94559166D01*
X177431666Y-94625833D01*
X177298333Y-94659166D01*
X177065000Y-94659166D01*
X176931666Y-94625833D01*
X176865000Y-94559166D01*
X176831666Y-94492500D01*
X176898333Y-93925833D02*
X176865000Y-93892500D01*
X176831666Y-93825833D01*
X176831666Y-93659166D01*
X176865000Y-93592500D01*
X176898333Y-93559166D01*
X176965000Y-93525833D01*
X177031666Y-93525833D01*
X177131666Y-93559166D01*
X177531666Y-93959166D01*
X177531666Y-93525833D01*
X166705000Y-96659166D02*
X166671666Y-96725833D01*
X166671666Y-96825833D01*
X166705000Y-96925833D01*
X166771666Y-96992500D01*
X166838333Y-97025833D01*
X166971666Y-97059166D01*
X167071666Y-97059166D01*
X167205000Y-97025833D01*
X167271666Y-96992500D01*
X167338333Y-96925833D01*
X167371666Y-96825833D01*
X167371666Y-96759166D01*
X167338333Y-96659166D01*
X167305000Y-96625833D01*
X167071666Y-96625833D01*
X167071666Y-96759166D01*
X167371666Y-96325833D02*
X166671666Y-96325833D01*
X166671666Y-96059166D01*
X166705000Y-95992500D01*
X166738333Y-95959166D01*
X166805000Y-95925833D01*
X166905000Y-95925833D01*
X166971666Y-95959166D01*
X167005000Y-95992500D01*
X167038333Y-96059166D01*
X167038333Y-96325833D01*
X167371666Y-95625833D02*
X166671666Y-95625833D01*
X166671666Y-95159166D02*
X166671666Y-95025833D01*
X166705000Y-94959166D01*
X166771666Y-94892500D01*
X166905000Y-94859166D01*
X167138333Y-94859166D01*
X167271666Y-94892500D01*
X167338333Y-94959166D01*
X167371666Y-95025833D01*
X167371666Y-95159166D01*
X167338333Y-95225833D01*
X167271666Y-95292500D01*
X167138333Y-95325833D01*
X166905000Y-95325833D01*
X166771666Y-95292500D01*
X166705000Y-95225833D01*
X166671666Y-95159166D01*
X167371666Y-94192500D02*
X167371666Y-94592500D01*
X167371666Y-94392500D02*
X166671666Y-94392500D01*
X166771666Y-94459166D01*
X166838333Y-94525833D01*
X166871666Y-94592500D01*
X166671666Y-93959166D02*
X166671666Y-93492500D01*
X167371666Y-93792500D01*
X169245000Y-115524166D02*
X169211666Y-115590833D01*
X169211666Y-115690833D01*
X169245000Y-115790833D01*
X169311666Y-115857500D01*
X169378333Y-115890833D01*
X169511666Y-115924166D01*
X169611666Y-115924166D01*
X169745000Y-115890833D01*
X169811666Y-115857500D01*
X169878333Y-115790833D01*
X169911666Y-115690833D01*
X169911666Y-115624166D01*
X169878333Y-115524166D01*
X169845000Y-115490833D01*
X169611666Y-115490833D01*
X169611666Y-115624166D01*
X169911666Y-115190833D02*
X169211666Y-115190833D01*
X169211666Y-114924166D01*
X169245000Y-114857500D01*
X169278333Y-114824166D01*
X169345000Y-114790833D01*
X169445000Y-114790833D01*
X169511666Y-114824166D01*
X169545000Y-114857500D01*
X169578333Y-114924166D01*
X169578333Y-115190833D01*
X169911666Y-114490833D02*
X169211666Y-114490833D01*
X169211666Y-114024166D02*
X169211666Y-113890833D01*
X169245000Y-113824166D01*
X169311666Y-113757500D01*
X169445000Y-113724166D01*
X169678333Y-113724166D01*
X169811666Y-113757500D01*
X169878333Y-113824166D01*
X169911666Y-113890833D01*
X169911666Y-114024166D01*
X169878333Y-114090833D01*
X169811666Y-114157500D01*
X169678333Y-114190833D01*
X169445000Y-114190833D01*
X169311666Y-114157500D01*
X169245000Y-114090833D01*
X169211666Y-114024166D01*
X169911666Y-113057500D02*
X169911666Y-113457500D01*
X169911666Y-113257500D02*
X169211666Y-113257500D01*
X169311666Y-113324166D01*
X169378333Y-113390833D01*
X169411666Y-113457500D01*
X169445000Y-112457500D02*
X169911666Y-112457500D01*
X169178333Y-112624166D02*
X169678333Y-112790833D01*
X169678333Y-112357500D01*
X169178333Y-111590833D02*
X170078333Y-112190833D01*
X169911666Y-111357500D02*
X169211666Y-111357500D01*
X169711666Y-111124166D01*
X169211666Y-110890833D01*
X169911666Y-110890833D01*
X169211666Y-110657500D02*
X169211666Y-110257500D01*
X169911666Y-110457500D02*
X169211666Y-110457500D01*
X169911666Y-110024166D02*
X169211666Y-110024166D01*
X169711666Y-109790833D01*
X169211666Y-109557500D01*
X169911666Y-109557500D01*
X169878333Y-109257500D02*
X169911666Y-109157500D01*
X169911666Y-108990833D01*
X169878333Y-108924166D01*
X169845000Y-108890833D01*
X169778333Y-108857500D01*
X169711666Y-108857500D01*
X169645000Y-108890833D01*
X169611666Y-108924166D01*
X169578333Y-108990833D01*
X169545000Y-109124166D01*
X169511666Y-109190833D01*
X169478333Y-109224166D01*
X169411666Y-109257500D01*
X169345000Y-109257500D01*
X169278333Y-109224166D01*
X169245000Y-109190833D01*
X169211666Y-109124166D01*
X169211666Y-108957500D01*
X169245000Y-108857500D01*
X164165000Y-115524166D02*
X164131666Y-115590833D01*
X164131666Y-115690833D01*
X164165000Y-115790833D01*
X164231666Y-115857500D01*
X164298333Y-115890833D01*
X164431666Y-115924166D01*
X164531666Y-115924166D01*
X164665000Y-115890833D01*
X164731666Y-115857500D01*
X164798333Y-115790833D01*
X164831666Y-115690833D01*
X164831666Y-115624166D01*
X164798333Y-115524166D01*
X164765000Y-115490833D01*
X164531666Y-115490833D01*
X164531666Y-115624166D01*
X164831666Y-115190833D02*
X164131666Y-115190833D01*
X164131666Y-114924166D01*
X164165000Y-114857500D01*
X164198333Y-114824166D01*
X164265000Y-114790833D01*
X164365000Y-114790833D01*
X164431666Y-114824166D01*
X164465000Y-114857500D01*
X164498333Y-114924166D01*
X164498333Y-115190833D01*
X164831666Y-114490833D02*
X164131666Y-114490833D01*
X164131666Y-114024166D02*
X164131666Y-113890833D01*
X164165000Y-113824166D01*
X164231666Y-113757500D01*
X164365000Y-113724166D01*
X164598333Y-113724166D01*
X164731666Y-113757500D01*
X164798333Y-113824166D01*
X164831666Y-113890833D01*
X164831666Y-114024166D01*
X164798333Y-114090833D01*
X164731666Y-114157500D01*
X164598333Y-114190833D01*
X164365000Y-114190833D01*
X164231666Y-114157500D01*
X164165000Y-114090833D01*
X164131666Y-114024166D01*
X164198333Y-113457500D02*
X164165000Y-113424166D01*
X164131666Y-113357500D01*
X164131666Y-113190833D01*
X164165000Y-113124166D01*
X164198333Y-113090833D01*
X164265000Y-113057500D01*
X164331666Y-113057500D01*
X164431666Y-113090833D01*
X164831666Y-113490833D01*
X164831666Y-113057500D01*
X164131666Y-112457500D02*
X164131666Y-112590833D01*
X164165000Y-112657500D01*
X164198333Y-112690833D01*
X164298333Y-112757500D01*
X164431666Y-112790833D01*
X164698333Y-112790833D01*
X164765000Y-112757500D01*
X164798333Y-112724166D01*
X164831666Y-112657500D01*
X164831666Y-112524166D01*
X164798333Y-112457500D01*
X164765000Y-112424166D01*
X164698333Y-112390833D01*
X164531666Y-112390833D01*
X164465000Y-112424166D01*
X164431666Y-112457500D01*
X164398333Y-112524166D01*
X164398333Y-112657500D01*
X164431666Y-112724166D01*
X164465000Y-112757500D01*
X164531666Y-112790833D01*
X151465000Y-115524166D02*
X151431666Y-115590833D01*
X151431666Y-115690833D01*
X151465000Y-115790833D01*
X151531666Y-115857500D01*
X151598333Y-115890833D01*
X151731666Y-115924166D01*
X151831666Y-115924166D01*
X151965000Y-115890833D01*
X152031666Y-115857500D01*
X152098333Y-115790833D01*
X152131666Y-115690833D01*
X152131666Y-115624166D01*
X152098333Y-115524166D01*
X152065000Y-115490833D01*
X151831666Y-115490833D01*
X151831666Y-115624166D01*
X152131666Y-115190833D02*
X151431666Y-115190833D01*
X151431666Y-114924166D01*
X151465000Y-114857500D01*
X151498333Y-114824166D01*
X151565000Y-114790833D01*
X151665000Y-114790833D01*
X151731666Y-114824166D01*
X151765000Y-114857500D01*
X151798333Y-114924166D01*
X151798333Y-115190833D01*
X152131666Y-114490833D02*
X151431666Y-114490833D01*
X151431666Y-114024166D02*
X151431666Y-113890833D01*
X151465000Y-113824166D01*
X151531666Y-113757500D01*
X151665000Y-113724166D01*
X151898333Y-113724166D01*
X152031666Y-113757500D01*
X152098333Y-113824166D01*
X152131666Y-113890833D01*
X152131666Y-114024166D01*
X152098333Y-114090833D01*
X152031666Y-114157500D01*
X151898333Y-114190833D01*
X151665000Y-114190833D01*
X151531666Y-114157500D01*
X151465000Y-114090833D01*
X151431666Y-114024166D01*
X151431666Y-113490833D02*
X151431666Y-113057500D01*
X151698333Y-113290833D01*
X151698333Y-113190833D01*
X151731666Y-113124166D01*
X151765000Y-113090833D01*
X151831666Y-113057500D01*
X151998333Y-113057500D01*
X152065000Y-113090833D01*
X152098333Y-113124166D01*
X152131666Y-113190833D01*
X152131666Y-113390833D01*
X152098333Y-113457500D01*
X152065000Y-113490833D01*
X151665000Y-112457500D02*
X152131666Y-112457500D01*
X151398333Y-112624166D02*
X151898333Y-112790833D01*
X151898333Y-112357500D01*
X146385000Y-96659166D02*
X146351666Y-96725833D01*
X146351666Y-96825833D01*
X146385000Y-96925833D01*
X146451666Y-96992500D01*
X146518333Y-97025833D01*
X146651666Y-97059166D01*
X146751666Y-97059166D01*
X146885000Y-97025833D01*
X146951666Y-96992500D01*
X147018333Y-96925833D01*
X147051666Y-96825833D01*
X147051666Y-96759166D01*
X147018333Y-96659166D01*
X146985000Y-96625833D01*
X146751666Y-96625833D01*
X146751666Y-96759166D01*
X147051666Y-96325833D02*
X146351666Y-96325833D01*
X146351666Y-96059166D01*
X146385000Y-95992500D01*
X146418333Y-95959166D01*
X146485000Y-95925833D01*
X146585000Y-95925833D01*
X146651666Y-95959166D01*
X146685000Y-95992500D01*
X146718333Y-96059166D01*
X146718333Y-96325833D01*
X147051666Y-95625833D02*
X146351666Y-95625833D01*
X146351666Y-95159166D02*
X146351666Y-95025833D01*
X146385000Y-94959166D01*
X146451666Y-94892500D01*
X146585000Y-94859166D01*
X146818333Y-94859166D01*
X146951666Y-94892500D01*
X147018333Y-94959166D01*
X147051666Y-95025833D01*
X147051666Y-95159166D01*
X147018333Y-95225833D01*
X146951666Y-95292500D01*
X146818333Y-95325833D01*
X146585000Y-95325833D01*
X146451666Y-95292500D01*
X146385000Y-95225833D01*
X146351666Y-95159166D01*
X146418333Y-94592500D02*
X146385000Y-94559166D01*
X146351666Y-94492500D01*
X146351666Y-94325833D01*
X146385000Y-94259166D01*
X146418333Y-94225833D01*
X146485000Y-94192500D01*
X146551666Y-94192500D01*
X146651666Y-94225833D01*
X147051666Y-94625833D01*
X147051666Y-94192500D01*
X146418333Y-93925833D02*
X146385000Y-93892500D01*
X146351666Y-93825833D01*
X146351666Y-93659166D01*
X146385000Y-93592500D01*
X146418333Y-93559166D01*
X146485000Y-93525833D01*
X146551666Y-93525833D01*
X146651666Y-93559166D01*
X147051666Y-93959166D01*
X147051666Y-93525833D01*
X185151666Y-94592500D02*
X184451666Y-94592500D01*
X184451666Y-94425833D01*
X184485000Y-94325833D01*
X184551666Y-94259166D01*
X184618333Y-94225833D01*
X184751666Y-94192500D01*
X184851666Y-94192500D01*
X184985000Y-94225833D01*
X185051666Y-94259166D01*
X185118333Y-94325833D01*
X185151666Y-94425833D01*
X185151666Y-94592500D01*
X184451666Y-93759166D02*
X184451666Y-93692500D01*
X184485000Y-93625833D01*
X184518333Y-93592500D01*
X184585000Y-93559166D01*
X184718333Y-93525833D01*
X184885000Y-93525833D01*
X185018333Y-93559166D01*
X185085000Y-93592500D01*
X185118333Y-93625833D01*
X185151666Y-93692500D01*
X185151666Y-93759166D01*
X185118333Y-93825833D01*
X185085000Y-93859166D01*
X185018333Y-93892500D01*
X184885000Y-93925833D01*
X184718333Y-93925833D01*
X184585000Y-93892500D01*
X184518333Y-93859166D01*
X184485000Y-93825833D01*
X184451666Y-93759166D01*
X169245000Y-96659166D02*
X169211666Y-96725833D01*
X169211666Y-96825833D01*
X169245000Y-96925833D01*
X169311666Y-96992500D01*
X169378333Y-97025833D01*
X169511666Y-97059166D01*
X169611666Y-97059166D01*
X169745000Y-97025833D01*
X169811666Y-96992500D01*
X169878333Y-96925833D01*
X169911666Y-96825833D01*
X169911666Y-96759166D01*
X169878333Y-96659166D01*
X169845000Y-96625833D01*
X169611666Y-96625833D01*
X169611666Y-96759166D01*
X169911666Y-96325833D02*
X169211666Y-96325833D01*
X169211666Y-96059166D01*
X169245000Y-95992500D01*
X169278333Y-95959166D01*
X169345000Y-95925833D01*
X169445000Y-95925833D01*
X169511666Y-95959166D01*
X169545000Y-95992500D01*
X169578333Y-96059166D01*
X169578333Y-96325833D01*
X169911666Y-95625833D02*
X169211666Y-95625833D01*
X169211666Y-95159166D02*
X169211666Y-95025833D01*
X169245000Y-94959166D01*
X169311666Y-94892500D01*
X169445000Y-94859166D01*
X169678333Y-94859166D01*
X169811666Y-94892500D01*
X169878333Y-94959166D01*
X169911666Y-95025833D01*
X169911666Y-95159166D01*
X169878333Y-95225833D01*
X169811666Y-95292500D01*
X169678333Y-95325833D01*
X169445000Y-95325833D01*
X169311666Y-95292500D01*
X169245000Y-95225833D01*
X169211666Y-95159166D01*
X169911666Y-94192500D02*
X169911666Y-94592500D01*
X169911666Y-94392500D02*
X169211666Y-94392500D01*
X169311666Y-94459166D01*
X169378333Y-94525833D01*
X169411666Y-94592500D01*
X169211666Y-93592500D02*
X169211666Y-93725833D01*
X169245000Y-93792500D01*
X169278333Y-93825833D01*
X169378333Y-93892500D01*
X169511666Y-93925833D01*
X169778333Y-93925833D01*
X169845000Y-93892500D01*
X169878333Y-93859166D01*
X169911666Y-93792500D01*
X169911666Y-93659166D01*
X169878333Y-93592500D01*
X169845000Y-93559166D01*
X169778333Y-93525833D01*
X169611666Y-93525833D01*
X169545000Y-93559166D01*
X169511666Y-93592500D01*
X169478333Y-93659166D01*
X169478333Y-93792500D01*
X169511666Y-93859166D01*
X169545000Y-93892500D01*
X169611666Y-93925833D01*
X148925000Y-100025833D02*
X148891666Y-100092500D01*
X148891666Y-100192500D01*
X148925000Y-100292500D01*
X148991666Y-100359166D01*
X149058333Y-100392500D01*
X149191666Y-100425833D01*
X149291666Y-100425833D01*
X149425000Y-100392500D01*
X149491666Y-100359166D01*
X149558333Y-100292500D01*
X149591666Y-100192500D01*
X149591666Y-100125833D01*
X149558333Y-100025833D01*
X149525000Y-99992500D01*
X149291666Y-99992500D01*
X149291666Y-100125833D01*
X149591666Y-99692500D02*
X148891666Y-99692500D01*
X148891666Y-99425833D01*
X148925000Y-99359166D01*
X148958333Y-99325833D01*
X149025000Y-99292500D01*
X149125000Y-99292500D01*
X149191666Y-99325833D01*
X149225000Y-99359166D01*
X149258333Y-99425833D01*
X149258333Y-99692500D01*
X149591666Y-98992500D02*
X148891666Y-98992500D01*
X148891666Y-98525833D02*
X148891666Y-98392500D01*
X148925000Y-98325833D01*
X148991666Y-98259166D01*
X149125000Y-98225833D01*
X149358333Y-98225833D01*
X149491666Y-98259166D01*
X149558333Y-98325833D01*
X149591666Y-98392500D01*
X149591666Y-98525833D01*
X149558333Y-98592500D01*
X149491666Y-98659166D01*
X149358333Y-98692500D01*
X149125000Y-98692500D01*
X148991666Y-98659166D01*
X148925000Y-98592500D01*
X148891666Y-98525833D01*
X149591666Y-97559166D02*
X149591666Y-97959166D01*
X149591666Y-97759166D02*
X148891666Y-97759166D01*
X148991666Y-97825833D01*
X149058333Y-97892500D01*
X149091666Y-97959166D01*
X148858333Y-96759166D02*
X149758333Y-97359166D01*
X148891666Y-96525833D02*
X149458333Y-96525833D01*
X149525000Y-96492500D01*
X149558333Y-96459166D01*
X149591666Y-96392500D01*
X149591666Y-96259166D01*
X149558333Y-96192500D01*
X149525000Y-96159166D01*
X149458333Y-96125833D01*
X148891666Y-96125833D01*
X148891666Y-95659166D02*
X148891666Y-95592500D01*
X148925000Y-95525833D01*
X148958333Y-95492500D01*
X149025000Y-95459166D01*
X149158333Y-95425833D01*
X149325000Y-95425833D01*
X149458333Y-95459166D01*
X149525000Y-95492500D01*
X149558333Y-95525833D01*
X149591666Y-95592500D01*
X149591666Y-95659166D01*
X149558333Y-95725833D01*
X149525000Y-95759166D01*
X149458333Y-95792500D01*
X149325000Y-95825833D01*
X149158333Y-95825833D01*
X149025000Y-95792500D01*
X148958333Y-95759166D01*
X148925000Y-95725833D01*
X148891666Y-95659166D01*
X148891666Y-95225833D02*
X148891666Y-94825833D01*
X149591666Y-95025833D02*
X148891666Y-95025833D01*
X148891666Y-94659166D02*
X149591666Y-94192500D01*
X148891666Y-94192500D02*
X149591666Y-94659166D01*
X149591666Y-93925833D02*
X148891666Y-93925833D01*
X148891666Y-93759166D01*
X148925000Y-93659166D01*
X148991666Y-93592500D01*
X149058333Y-93559166D01*
X149191666Y-93525833D01*
X149291666Y-93525833D01*
X149425000Y-93559166D01*
X149491666Y-93592500D01*
X149558333Y-93659166D01*
X149591666Y-93759166D01*
X149591666Y-93925833D01*
X159085000Y-96659166D02*
X159051666Y-96725833D01*
X159051666Y-96825833D01*
X159085000Y-96925833D01*
X159151666Y-96992500D01*
X159218333Y-97025833D01*
X159351666Y-97059166D01*
X159451666Y-97059166D01*
X159585000Y-97025833D01*
X159651666Y-96992500D01*
X159718333Y-96925833D01*
X159751666Y-96825833D01*
X159751666Y-96759166D01*
X159718333Y-96659166D01*
X159685000Y-96625833D01*
X159451666Y-96625833D01*
X159451666Y-96759166D01*
X159751666Y-96325833D02*
X159051666Y-96325833D01*
X159051666Y-96059166D01*
X159085000Y-95992500D01*
X159118333Y-95959166D01*
X159185000Y-95925833D01*
X159285000Y-95925833D01*
X159351666Y-95959166D01*
X159385000Y-95992500D01*
X159418333Y-96059166D01*
X159418333Y-96325833D01*
X159751666Y-95625833D02*
X159051666Y-95625833D01*
X159051666Y-95159166D02*
X159051666Y-95025833D01*
X159085000Y-94959166D01*
X159151666Y-94892500D01*
X159285000Y-94859166D01*
X159518333Y-94859166D01*
X159651666Y-94892500D01*
X159718333Y-94959166D01*
X159751666Y-95025833D01*
X159751666Y-95159166D01*
X159718333Y-95225833D01*
X159651666Y-95292500D01*
X159518333Y-95325833D01*
X159285000Y-95325833D01*
X159151666Y-95292500D01*
X159085000Y-95225833D01*
X159051666Y-95159166D01*
X159751666Y-94192500D02*
X159751666Y-94592500D01*
X159751666Y-94392500D02*
X159051666Y-94392500D01*
X159151666Y-94459166D01*
X159218333Y-94525833D01*
X159251666Y-94592500D01*
X159751666Y-93859166D02*
X159751666Y-93725833D01*
X159718333Y-93659166D01*
X159685000Y-93625833D01*
X159585000Y-93559166D01*
X159451666Y-93525833D01*
X159185000Y-93525833D01*
X159118333Y-93559166D01*
X159085000Y-93592500D01*
X159051666Y-93659166D01*
X159051666Y-93792500D01*
X159085000Y-93859166D01*
X159118333Y-93892500D01*
X159185000Y-93925833D01*
X159351666Y-93925833D01*
X159418333Y-93892500D01*
X159451666Y-93859166D01*
X159485000Y-93792500D01*
X159485000Y-93659166D01*
X159451666Y-93592500D01*
X159418333Y-93559166D01*
X159351666Y-93525833D01*
X187078660Y-115346894D02*
X187078660Y-115823084D01*
X187554851Y-115870703D01*
X187507232Y-115823084D01*
X187459613Y-115727846D01*
X187459613Y-115489751D01*
X187507232Y-115394513D01*
X187554851Y-115346894D01*
X187650089Y-115299275D01*
X187888184Y-115299275D01*
X187983422Y-115346894D01*
X188031041Y-115394513D01*
X188078660Y-115489751D01*
X188078660Y-115727846D01*
X188031041Y-115823084D01*
X187983422Y-115870703D01*
X187078660Y-115013560D02*
X188078660Y-114680227D01*
X187078660Y-114346894D01*
X161625000Y-115524166D02*
X161591666Y-115590833D01*
X161591666Y-115690833D01*
X161625000Y-115790833D01*
X161691666Y-115857500D01*
X161758333Y-115890833D01*
X161891666Y-115924166D01*
X161991666Y-115924166D01*
X162125000Y-115890833D01*
X162191666Y-115857500D01*
X162258333Y-115790833D01*
X162291666Y-115690833D01*
X162291666Y-115624166D01*
X162258333Y-115524166D01*
X162225000Y-115490833D01*
X161991666Y-115490833D01*
X161991666Y-115624166D01*
X162291666Y-115190833D02*
X161591666Y-115190833D01*
X161591666Y-114924166D01*
X161625000Y-114857500D01*
X161658333Y-114824166D01*
X161725000Y-114790833D01*
X161825000Y-114790833D01*
X161891666Y-114824166D01*
X161925000Y-114857500D01*
X161958333Y-114924166D01*
X161958333Y-115190833D01*
X162291666Y-114490833D02*
X161591666Y-114490833D01*
X161591666Y-114024166D02*
X161591666Y-113890833D01*
X161625000Y-113824166D01*
X161691666Y-113757500D01*
X161825000Y-113724166D01*
X162058333Y-113724166D01*
X162191666Y-113757500D01*
X162258333Y-113824166D01*
X162291666Y-113890833D01*
X162291666Y-114024166D01*
X162258333Y-114090833D01*
X162191666Y-114157500D01*
X162058333Y-114190833D01*
X161825000Y-114190833D01*
X161691666Y-114157500D01*
X161625000Y-114090833D01*
X161591666Y-114024166D01*
X161658333Y-113457500D02*
X161625000Y-113424166D01*
X161591666Y-113357500D01*
X161591666Y-113190833D01*
X161625000Y-113124166D01*
X161658333Y-113090833D01*
X161725000Y-113057500D01*
X161791666Y-113057500D01*
X161891666Y-113090833D01*
X162291666Y-113490833D01*
X162291666Y-113057500D01*
X161591666Y-112424166D02*
X161591666Y-112757500D01*
X161925000Y-112790833D01*
X161891666Y-112757500D01*
X161858333Y-112690833D01*
X161858333Y-112524166D01*
X161891666Y-112457500D01*
X161925000Y-112424166D01*
X161991666Y-112390833D01*
X162158333Y-112390833D01*
X162225000Y-112424166D01*
X162258333Y-112457500D01*
X162291666Y-112524166D01*
X162291666Y-112690833D01*
X162258333Y-112757500D01*
X162225000Y-112790833D01*
X174175000Y-115295595D02*
X174127380Y-115390833D01*
X174127380Y-115533690D01*
X174175000Y-115676547D01*
X174270238Y-115771785D01*
X174365476Y-115819404D01*
X174555952Y-115867023D01*
X174698809Y-115867023D01*
X174889285Y-115819404D01*
X174984523Y-115771785D01*
X175079761Y-115676547D01*
X175127380Y-115533690D01*
X175127380Y-115438452D01*
X175079761Y-115295595D01*
X175032142Y-115247976D01*
X174698809Y-115247976D01*
X174698809Y-115438452D01*
X175127380Y-114819404D02*
X174127380Y-114819404D01*
X175127380Y-114247976D01*
X174127380Y-114247976D01*
X175127380Y-113771785D02*
X174127380Y-113771785D01*
X174127380Y-113533690D01*
X174175000Y-113390833D01*
X174270238Y-113295595D01*
X174365476Y-113247976D01*
X174555952Y-113200357D01*
X174698809Y-113200357D01*
X174889285Y-113247976D01*
X174984523Y-113295595D01*
X175079761Y-113390833D01*
X175127380Y-113533690D01*
X175127380Y-113771785D01*
X156545000Y-115524166D02*
X156511666Y-115590833D01*
X156511666Y-115690833D01*
X156545000Y-115790833D01*
X156611666Y-115857500D01*
X156678333Y-115890833D01*
X156811666Y-115924166D01*
X156911666Y-115924166D01*
X157045000Y-115890833D01*
X157111666Y-115857500D01*
X157178333Y-115790833D01*
X157211666Y-115690833D01*
X157211666Y-115624166D01*
X157178333Y-115524166D01*
X157145000Y-115490833D01*
X156911666Y-115490833D01*
X156911666Y-115624166D01*
X157211666Y-115190833D02*
X156511666Y-115190833D01*
X156511666Y-114924166D01*
X156545000Y-114857500D01*
X156578333Y-114824166D01*
X156645000Y-114790833D01*
X156745000Y-114790833D01*
X156811666Y-114824166D01*
X156845000Y-114857500D01*
X156878333Y-114924166D01*
X156878333Y-115190833D01*
X157211666Y-114490833D02*
X156511666Y-114490833D01*
X156511666Y-114024166D02*
X156511666Y-113890833D01*
X156545000Y-113824166D01*
X156611666Y-113757500D01*
X156745000Y-113724166D01*
X156978333Y-113724166D01*
X157111666Y-113757500D01*
X157178333Y-113824166D01*
X157211666Y-113890833D01*
X157211666Y-114024166D01*
X157178333Y-114090833D01*
X157111666Y-114157500D01*
X156978333Y-114190833D01*
X156745000Y-114190833D01*
X156611666Y-114157500D01*
X156545000Y-114090833D01*
X156511666Y-114024166D01*
X156511666Y-113490833D02*
X156511666Y-113057500D01*
X156778333Y-113290833D01*
X156778333Y-113190833D01*
X156811666Y-113124166D01*
X156845000Y-113090833D01*
X156911666Y-113057500D01*
X157078333Y-113057500D01*
X157145000Y-113090833D01*
X157178333Y-113124166D01*
X157211666Y-113190833D01*
X157211666Y-113390833D01*
X157178333Y-113457500D01*
X157145000Y-113490833D01*
X156578333Y-112790833D02*
X156545000Y-112757500D01*
X156511666Y-112690833D01*
X156511666Y-112524166D01*
X156545000Y-112457500D01*
X156578333Y-112424166D01*
X156645000Y-112390833D01*
X156711666Y-112390833D01*
X156811666Y-112424166D01*
X157211666Y-112824166D01*
X157211666Y-112390833D01*
X174325000Y-95992500D02*
X174291666Y-96059166D01*
X174291666Y-96159166D01*
X174325000Y-96259166D01*
X174391666Y-96325833D01*
X174458333Y-96359166D01*
X174591666Y-96392500D01*
X174691666Y-96392500D01*
X174825000Y-96359166D01*
X174891666Y-96325833D01*
X174958333Y-96259166D01*
X174991666Y-96159166D01*
X174991666Y-96092500D01*
X174958333Y-95992500D01*
X174925000Y-95959166D01*
X174691666Y-95959166D01*
X174691666Y-96092500D01*
X174991666Y-95659166D02*
X174291666Y-95659166D01*
X174291666Y-95392500D01*
X174325000Y-95325833D01*
X174358333Y-95292500D01*
X174425000Y-95259166D01*
X174525000Y-95259166D01*
X174591666Y-95292500D01*
X174625000Y-95325833D01*
X174658333Y-95392500D01*
X174658333Y-95659166D01*
X174991666Y-94959166D02*
X174291666Y-94959166D01*
X174291666Y-94492500D02*
X174291666Y-94359166D01*
X174325000Y-94292500D01*
X174391666Y-94225833D01*
X174525000Y-94192500D01*
X174758333Y-94192500D01*
X174891666Y-94225833D01*
X174958333Y-94292500D01*
X174991666Y-94359166D01*
X174991666Y-94492500D01*
X174958333Y-94559166D01*
X174891666Y-94625833D01*
X174758333Y-94659166D01*
X174525000Y-94659166D01*
X174391666Y-94625833D01*
X174325000Y-94559166D01*
X174291666Y-94492500D01*
X174291666Y-93759166D02*
X174291666Y-93692500D01*
X174325000Y-93625833D01*
X174358333Y-93592500D01*
X174425000Y-93559166D01*
X174558333Y-93525833D01*
X174725000Y-93525833D01*
X174858333Y-93559166D01*
X174925000Y-93592500D01*
X174958333Y-93625833D01*
X174991666Y-93692500D01*
X174991666Y-93759166D01*
X174958333Y-93825833D01*
X174925000Y-93859166D01*
X174858333Y-93892500D01*
X174725000Y-93925833D01*
X174558333Y-93925833D01*
X174425000Y-93892500D01*
X174358333Y-93859166D01*
X174325000Y-93825833D01*
X174291666Y-93759166D01*
X187625000Y-94792500D02*
X187658333Y-94825833D01*
X187691666Y-94925833D01*
X187691666Y-94992500D01*
X187658333Y-95092500D01*
X187591666Y-95159166D01*
X187525000Y-95192500D01*
X187391666Y-95225833D01*
X187291666Y-95225833D01*
X187158333Y-95192500D01*
X187091666Y-95159166D01*
X187025000Y-95092500D01*
X186991666Y-94992500D01*
X186991666Y-94925833D01*
X187025000Y-94825833D01*
X187058333Y-94792500D01*
X187691666Y-94159166D02*
X187691666Y-94492500D01*
X186991666Y-94492500D01*
X187691666Y-93925833D02*
X186991666Y-93925833D01*
X187691666Y-93525833D02*
X187291666Y-93825833D01*
X186991666Y-93525833D02*
X187391666Y-93925833D01*
X144120851Y-115921894D02*
X144120851Y-115588560D01*
X144644660Y-115445703D02*
X144644660Y-115921894D01*
X143644660Y-115921894D01*
X143644660Y-115445703D01*
X144644660Y-115017132D02*
X143644660Y-115017132D01*
X144644660Y-114445703D01*
X143644660Y-114445703D01*
X143597041Y-113255227D02*
X144882756Y-114112370D01*
X144644660Y-112350465D02*
X144168470Y-112683799D01*
X144644660Y-112921894D02*
X143644660Y-112921894D01*
X143644660Y-112540941D01*
X143692280Y-112445703D01*
X143739899Y-112398084D01*
X143835137Y-112350465D01*
X143977994Y-112350465D01*
X144073232Y-112398084D01*
X144120851Y-112445703D01*
X144168470Y-112540941D01*
X144168470Y-112921894D01*
X144120851Y-111921894D02*
X144120851Y-111588560D01*
X144644660Y-111445703D02*
X144644660Y-111921894D01*
X143644660Y-111921894D01*
X143644660Y-111445703D01*
X144597041Y-111064751D02*
X144644660Y-110921894D01*
X144644660Y-110683799D01*
X144597041Y-110588560D01*
X144549422Y-110540941D01*
X144454184Y-110493322D01*
X144358946Y-110493322D01*
X144263708Y-110540941D01*
X144216089Y-110588560D01*
X144168470Y-110683799D01*
X144120851Y-110874275D01*
X144073232Y-110969513D01*
X144025613Y-111017132D01*
X143930375Y-111064751D01*
X143835137Y-111064751D01*
X143739899Y-111017132D01*
X143692280Y-110969513D01*
X143644660Y-110874275D01*
X143644660Y-110636180D01*
X143692280Y-110493322D01*
X144120851Y-110064751D02*
X144120851Y-109731418D01*
X144644660Y-109588560D02*
X144644660Y-110064751D01*
X143644660Y-110064751D01*
X143644660Y-109588560D01*
X143644660Y-109302846D02*
X143644660Y-108731418D01*
X144644660Y-109017132D02*
X143644660Y-109017132D01*
X146351666Y-115990833D02*
X147051666Y-115757500D01*
X146351666Y-115524166D01*
X147051666Y-115290833D02*
X146351666Y-115290833D01*
X146351666Y-115024166D01*
X146385000Y-114957500D01*
X146418333Y-114924166D01*
X146485000Y-114890833D01*
X146585000Y-114890833D01*
X146651666Y-114924166D01*
X146685000Y-114957500D01*
X146718333Y-115024166D01*
X146718333Y-115290833D01*
X146318333Y-114090833D02*
X147218333Y-114690833D01*
X146385000Y-113490833D02*
X146351666Y-113557500D01*
X146351666Y-113657500D01*
X146385000Y-113757500D01*
X146451666Y-113824166D01*
X146518333Y-113857500D01*
X146651666Y-113890833D01*
X146751666Y-113890833D01*
X146885000Y-113857500D01*
X146951666Y-113824166D01*
X147018333Y-113757500D01*
X147051666Y-113657500D01*
X147051666Y-113590833D01*
X147018333Y-113490833D01*
X146985000Y-113457500D01*
X146751666Y-113457500D01*
X146751666Y-113590833D01*
X147051666Y-113157500D02*
X146351666Y-113157500D01*
X146351666Y-112890833D01*
X146385000Y-112824166D01*
X146418333Y-112790833D01*
X146485000Y-112757500D01*
X146585000Y-112757500D01*
X146651666Y-112790833D01*
X146685000Y-112824166D01*
X146718333Y-112890833D01*
X146718333Y-113157500D01*
X147051666Y-112457500D02*
X146351666Y-112457500D01*
X146351666Y-111990833D02*
X146351666Y-111857500D01*
X146385000Y-111790833D01*
X146451666Y-111724166D01*
X146585000Y-111690833D01*
X146818333Y-111690833D01*
X146951666Y-111724166D01*
X147018333Y-111790833D01*
X147051666Y-111857500D01*
X147051666Y-111990833D01*
X147018333Y-112057500D01*
X146951666Y-112124166D01*
X146818333Y-112157500D01*
X146585000Y-112157500D01*
X146451666Y-112124166D01*
X146385000Y-112057500D01*
X146351666Y-111990833D01*
X146351666Y-111457500D02*
X146351666Y-111024166D01*
X146618333Y-111257500D01*
X146618333Y-111157500D01*
X146651666Y-111090833D01*
X146685000Y-111057500D01*
X146751666Y-111024166D01*
X146918333Y-111024166D01*
X146985000Y-111057500D01*
X147018333Y-111090833D01*
X147051666Y-111157500D01*
X147051666Y-111357500D01*
X147018333Y-111424166D01*
X146985000Y-111457500D01*
X146351666Y-110424166D02*
X146351666Y-110557500D01*
X146385000Y-110624166D01*
X146418333Y-110657500D01*
X146518333Y-110724166D01*
X146651666Y-110757500D01*
X146918333Y-110757500D01*
X146985000Y-110724166D01*
X147018333Y-110690833D01*
X147051666Y-110624166D01*
X147051666Y-110490833D01*
X147018333Y-110424166D01*
X146985000Y-110390833D01*
X146918333Y-110357500D01*
X146751666Y-110357500D01*
X146685000Y-110390833D01*
X146651666Y-110424166D01*
X146618333Y-110490833D01*
X146618333Y-110624166D01*
X146651666Y-110690833D01*
X146685000Y-110724166D01*
X146751666Y-110757500D01*
X156395000Y-95678214D02*
X156347380Y-95773452D01*
X156347380Y-95916309D01*
X156395000Y-96059166D01*
X156490238Y-96154404D01*
X156585476Y-96202023D01*
X156775952Y-96249642D01*
X156918809Y-96249642D01*
X157109285Y-96202023D01*
X157204523Y-96154404D01*
X157299761Y-96059166D01*
X157347380Y-95916309D01*
X157347380Y-95821071D01*
X157299761Y-95678214D01*
X157252142Y-95630595D01*
X156918809Y-95630595D01*
X156918809Y-95821071D01*
X157347380Y-95202023D02*
X156347380Y-95202023D01*
X157347380Y-94630595D01*
X156347380Y-94630595D01*
X157347380Y-94154404D02*
X156347380Y-94154404D01*
X156347380Y-93916309D01*
X156395000Y-93773452D01*
X156490238Y-93678214D01*
X156585476Y-93630595D01*
X156775952Y-93582976D01*
X156918809Y-93582976D01*
X157109285Y-93630595D01*
X157204523Y-93678214D01*
X157299761Y-93773452D01*
X157347380Y-93916309D01*
X157347380Y-94154404D01*
X151465000Y-100192500D02*
X151431666Y-100259166D01*
X151431666Y-100359166D01*
X151465000Y-100459166D01*
X151531666Y-100525833D01*
X151598333Y-100559166D01*
X151731666Y-100592500D01*
X151831666Y-100592500D01*
X151965000Y-100559166D01*
X152031666Y-100525833D01*
X152098333Y-100459166D01*
X152131666Y-100359166D01*
X152131666Y-100292500D01*
X152098333Y-100192500D01*
X152065000Y-100159166D01*
X151831666Y-100159166D01*
X151831666Y-100292500D01*
X152131666Y-99859166D02*
X151431666Y-99859166D01*
X151431666Y-99592500D01*
X151465000Y-99525833D01*
X151498333Y-99492500D01*
X151565000Y-99459166D01*
X151665000Y-99459166D01*
X151731666Y-99492500D01*
X151765000Y-99525833D01*
X151798333Y-99592500D01*
X151798333Y-99859166D01*
X152131666Y-99159166D02*
X151431666Y-99159166D01*
X151431666Y-98692500D02*
X151431666Y-98559166D01*
X151465000Y-98492500D01*
X151531666Y-98425833D01*
X151665000Y-98392500D01*
X151898333Y-98392500D01*
X152031666Y-98425833D01*
X152098333Y-98492500D01*
X152131666Y-98559166D01*
X152131666Y-98692500D01*
X152098333Y-98759166D01*
X152031666Y-98825833D01*
X151898333Y-98859166D01*
X151665000Y-98859166D01*
X151531666Y-98825833D01*
X151465000Y-98759166D01*
X151431666Y-98692500D01*
X151431666Y-98159166D02*
X151431666Y-97725833D01*
X151698333Y-97959166D01*
X151698333Y-97859166D01*
X151731666Y-97792500D01*
X151765000Y-97759166D01*
X151831666Y-97725833D01*
X151998333Y-97725833D01*
X152065000Y-97759166D01*
X152098333Y-97792500D01*
X152131666Y-97859166D01*
X152131666Y-98059166D01*
X152098333Y-98125833D01*
X152065000Y-98159166D01*
X151398333Y-96925833D02*
X152298333Y-97525833D01*
X151431666Y-96692500D02*
X151998333Y-96692500D01*
X152065000Y-96659166D01*
X152098333Y-96625833D01*
X152131666Y-96559166D01*
X152131666Y-96425833D01*
X152098333Y-96359166D01*
X152065000Y-96325833D01*
X151998333Y-96292500D01*
X151431666Y-96292500D01*
X151431666Y-95825833D02*
X151431666Y-95759166D01*
X151465000Y-95692500D01*
X151498333Y-95659166D01*
X151565000Y-95625833D01*
X151698333Y-95592500D01*
X151865000Y-95592500D01*
X151998333Y-95625833D01*
X152065000Y-95659166D01*
X152098333Y-95692500D01*
X152131666Y-95759166D01*
X152131666Y-95825833D01*
X152098333Y-95892500D01*
X152065000Y-95925833D01*
X151998333Y-95959166D01*
X151865000Y-95992500D01*
X151698333Y-95992500D01*
X151565000Y-95959166D01*
X151498333Y-95925833D01*
X151465000Y-95892500D01*
X151431666Y-95825833D01*
X152131666Y-94892500D02*
X151798333Y-95125833D01*
X152131666Y-95292500D02*
X151431666Y-95292500D01*
X151431666Y-95025833D01*
X151465000Y-94959166D01*
X151498333Y-94925833D01*
X151565000Y-94892500D01*
X151665000Y-94892500D01*
X151731666Y-94925833D01*
X151765000Y-94959166D01*
X151798333Y-95025833D01*
X151798333Y-95292500D01*
X151431666Y-94659166D02*
X152131666Y-94192500D01*
X151431666Y-94192500D02*
X152131666Y-94659166D01*
X152131666Y-93925833D02*
X151431666Y-93925833D01*
X151431666Y-93759166D01*
X151465000Y-93659166D01*
X151531666Y-93592500D01*
X151598333Y-93559166D01*
X151731666Y-93525833D01*
X151831666Y-93525833D01*
X151965000Y-93559166D01*
X152031666Y-93592500D01*
X152098333Y-93659166D01*
X152131666Y-93759166D01*
X152131666Y-93925833D01*
X141107380Y-115914642D02*
X141107380Y-115295595D01*
X141488333Y-115628928D01*
X141488333Y-115486071D01*
X141535952Y-115390833D01*
X141583571Y-115343214D01*
X141678809Y-115295595D01*
X141916904Y-115295595D01*
X142012142Y-115343214D01*
X142059761Y-115390833D01*
X142107380Y-115486071D01*
X142107380Y-115771785D01*
X142059761Y-115867023D01*
X142012142Y-115914642D01*
X141107380Y-115009880D02*
X142107380Y-114676547D01*
X141107380Y-114343214D01*
X141107380Y-114105119D02*
X141107380Y-113486071D01*
X141488333Y-113819404D01*
X141488333Y-113676547D01*
X141535952Y-113581309D01*
X141583571Y-113533690D01*
X141678809Y-113486071D01*
X141916904Y-113486071D01*
X142012142Y-113533690D01*
X142059761Y-113581309D01*
X142107380Y-113676547D01*
X142107380Y-113962261D01*
X142059761Y-114057500D01*
X142012142Y-114105119D01*
X143845000Y-96659166D02*
X143811666Y-96725833D01*
X143811666Y-96825833D01*
X143845000Y-96925833D01*
X143911666Y-96992500D01*
X143978333Y-97025833D01*
X144111666Y-97059166D01*
X144211666Y-97059166D01*
X144345000Y-97025833D01*
X144411666Y-96992500D01*
X144478333Y-96925833D01*
X144511666Y-96825833D01*
X144511666Y-96759166D01*
X144478333Y-96659166D01*
X144445000Y-96625833D01*
X144211666Y-96625833D01*
X144211666Y-96759166D01*
X144511666Y-96325833D02*
X143811666Y-96325833D01*
X143811666Y-96059166D01*
X143845000Y-95992500D01*
X143878333Y-95959166D01*
X143945000Y-95925833D01*
X144045000Y-95925833D01*
X144111666Y-95959166D01*
X144145000Y-95992500D01*
X144178333Y-96059166D01*
X144178333Y-96325833D01*
X144511666Y-95625833D02*
X143811666Y-95625833D01*
X143811666Y-95159166D02*
X143811666Y-95025833D01*
X143845000Y-94959166D01*
X143911666Y-94892500D01*
X144045000Y-94859166D01*
X144278333Y-94859166D01*
X144411666Y-94892500D01*
X144478333Y-94959166D01*
X144511666Y-95025833D01*
X144511666Y-95159166D01*
X144478333Y-95225833D01*
X144411666Y-95292500D01*
X144278333Y-95325833D01*
X144045000Y-95325833D01*
X143911666Y-95292500D01*
X143845000Y-95225833D01*
X143811666Y-95159166D01*
X143878333Y-94592500D02*
X143845000Y-94559166D01*
X143811666Y-94492500D01*
X143811666Y-94325833D01*
X143845000Y-94259166D01*
X143878333Y-94225833D01*
X143945000Y-94192500D01*
X144011666Y-94192500D01*
X144111666Y-94225833D01*
X144511666Y-94625833D01*
X144511666Y-94192500D01*
X143811666Y-93959166D02*
X143811666Y-93525833D01*
X144078333Y-93759166D01*
X144078333Y-93659166D01*
X144111666Y-93592500D01*
X144145000Y-93559166D01*
X144211666Y-93525833D01*
X144378333Y-93525833D01*
X144445000Y-93559166D01*
X144478333Y-93592500D01*
X144511666Y-93659166D01*
X144511666Y-93859166D01*
X144478333Y-93925833D01*
X144445000Y-93959166D01*
X182611666Y-94592500D02*
X181911666Y-94592500D01*
X181911666Y-94425833D01*
X181945000Y-94325833D01*
X182011666Y-94259166D01*
X182078333Y-94225833D01*
X182211666Y-94192500D01*
X182311666Y-94192500D01*
X182445000Y-94225833D01*
X182511666Y-94259166D01*
X182578333Y-94325833D01*
X182611666Y-94425833D01*
X182611666Y-94592500D01*
X182611666Y-93525833D02*
X182611666Y-93925833D01*
X182611666Y-93725833D02*
X181911666Y-93725833D01*
X182011666Y-93792500D01*
X182078333Y-93859166D01*
X182111666Y-93925833D01*
X159085000Y-115524166D02*
X159051666Y-115590833D01*
X159051666Y-115690833D01*
X159085000Y-115790833D01*
X159151666Y-115857500D01*
X159218333Y-115890833D01*
X159351666Y-115924166D01*
X159451666Y-115924166D01*
X159585000Y-115890833D01*
X159651666Y-115857500D01*
X159718333Y-115790833D01*
X159751666Y-115690833D01*
X159751666Y-115624166D01*
X159718333Y-115524166D01*
X159685000Y-115490833D01*
X159451666Y-115490833D01*
X159451666Y-115624166D01*
X159751666Y-115190833D02*
X159051666Y-115190833D01*
X159051666Y-114924166D01*
X159085000Y-114857500D01*
X159118333Y-114824166D01*
X159185000Y-114790833D01*
X159285000Y-114790833D01*
X159351666Y-114824166D01*
X159385000Y-114857500D01*
X159418333Y-114924166D01*
X159418333Y-115190833D01*
X159751666Y-114490833D02*
X159051666Y-114490833D01*
X159051666Y-114024166D02*
X159051666Y-113890833D01*
X159085000Y-113824166D01*
X159151666Y-113757500D01*
X159285000Y-113724166D01*
X159518333Y-113724166D01*
X159651666Y-113757500D01*
X159718333Y-113824166D01*
X159751666Y-113890833D01*
X159751666Y-114024166D01*
X159718333Y-114090833D01*
X159651666Y-114157500D01*
X159518333Y-114190833D01*
X159285000Y-114190833D01*
X159151666Y-114157500D01*
X159085000Y-114090833D01*
X159051666Y-114024166D01*
X159051666Y-113490833D02*
X159051666Y-113057500D01*
X159318333Y-113290833D01*
X159318333Y-113190833D01*
X159351666Y-113124166D01*
X159385000Y-113090833D01*
X159451666Y-113057500D01*
X159618333Y-113057500D01*
X159685000Y-113090833D01*
X159718333Y-113124166D01*
X159751666Y-113190833D01*
X159751666Y-113390833D01*
X159718333Y-113457500D01*
X159685000Y-113490833D01*
X159051666Y-112824166D02*
X159051666Y-112390833D01*
X159318333Y-112624166D01*
X159318333Y-112524166D01*
X159351666Y-112457500D01*
X159385000Y-112424166D01*
X159451666Y-112390833D01*
X159618333Y-112390833D01*
X159685000Y-112424166D01*
X159718333Y-112457500D01*
X159751666Y-112524166D01*
X159751666Y-112724166D01*
X159718333Y-112790833D01*
X159685000Y-112824166D01*
%TO.C,*%
X149681904Y-126952380D02*
X150300952Y-126952380D01*
X149967619Y-127333333D01*
X150110476Y-127333333D01*
X150205714Y-127380952D01*
X150253333Y-127428571D01*
X150300952Y-127523809D01*
X150300952Y-127761904D01*
X150253333Y-127857142D01*
X150205714Y-127904761D01*
X150110476Y-127952380D01*
X149824761Y-127952380D01*
X149729523Y-127904761D01*
X149681904Y-127857142D01*
X150920000Y-126952380D02*
X151015238Y-126952380D01*
X151110476Y-127000000D01*
X151158095Y-127047619D01*
X151205714Y-127142857D01*
X151253333Y-127333333D01*
X151253333Y-127571428D01*
X151205714Y-127761904D01*
X151158095Y-127857142D01*
X151110476Y-127904761D01*
X151015238Y-127952380D01*
X150920000Y-127952380D01*
X150824761Y-127904761D01*
X150777142Y-127857142D01*
X150729523Y-127761904D01*
X150681904Y-127571428D01*
X150681904Y-127333333D01*
X150729523Y-127142857D01*
X150777142Y-127047619D01*
X150824761Y-127000000D01*
X150920000Y-126952380D01*
X151872380Y-126952380D02*
X151967619Y-126952380D01*
X152062857Y-127000000D01*
X152110476Y-127047619D01*
X152158095Y-127142857D01*
X152205714Y-127333333D01*
X152205714Y-127571428D01*
X152158095Y-127761904D01*
X152110476Y-127857142D01*
X152062857Y-127904761D01*
X151967619Y-127952380D01*
X151872380Y-127952380D01*
X151777142Y-127904761D01*
X151729523Y-127857142D01*
X151681904Y-127761904D01*
X151634285Y-127571428D01*
X151634285Y-127333333D01*
X151681904Y-127142857D01*
X151729523Y-127047619D01*
X151777142Y-127000000D01*
X151872380Y-126952380D01*
X153348571Y-127952380D02*
X153586666Y-127952380D01*
X153586666Y-127761904D01*
X153491428Y-127714285D01*
X153396190Y-127619047D01*
X153348571Y-127476190D01*
X153348571Y-127238095D01*
X153396190Y-127095238D01*
X153491428Y-127000000D01*
X153634285Y-126952380D01*
X153824761Y-126952380D01*
X153967619Y-127000000D01*
X154062857Y-127095238D01*
X154110476Y-127238095D01*
X154110476Y-127476190D01*
X154062857Y-127619047D01*
X153967619Y-127714285D01*
X153872380Y-127761904D01*
X153872380Y-127952380D01*
X154110476Y-127952380D01*
%TO.C,REF\u002A\u002A*%
X150372380Y-137952380D02*
X149800952Y-137952380D01*
X150086666Y-137952380D02*
X150086666Y-136952380D01*
X149991428Y-137095238D01*
X149896190Y-137190476D01*
X149800952Y-137238095D01*
X150991428Y-136952380D02*
X151086666Y-136952380D01*
X151181904Y-137000000D01*
X151229523Y-137047619D01*
X151277142Y-137142857D01*
X151324761Y-137333333D01*
X151324761Y-137571428D01*
X151277142Y-137761904D01*
X151229523Y-137857142D01*
X151181904Y-137904761D01*
X151086666Y-137952380D01*
X150991428Y-137952380D01*
X150896190Y-137904761D01*
X150848571Y-137857142D01*
X150800952Y-137761904D01*
X150753333Y-137571428D01*
X150753333Y-137333333D01*
X150800952Y-137142857D01*
X150848571Y-137047619D01*
X150896190Y-137000000D01*
X150991428Y-136952380D01*
X151753333Y-137952380D02*
X151753333Y-136952380D01*
X151848571Y-137571428D02*
X152134285Y-137952380D01*
X152134285Y-137285714D02*
X151753333Y-137666666D01*
X153277142Y-137952380D02*
X153515238Y-137952380D01*
X153515238Y-137761904D01*
X153420000Y-137714285D01*
X153324761Y-137619047D01*
X153277142Y-137476190D01*
X153277142Y-137238095D01*
X153324761Y-137095238D01*
X153420000Y-137000000D01*
X153562857Y-136952380D01*
X153753333Y-136952380D01*
X153896190Y-137000000D01*
X153991428Y-137095238D01*
X154039047Y-137238095D01*
X154039047Y-137476190D01*
X153991428Y-137619047D01*
X153896190Y-137714285D01*
X153800952Y-137761904D01*
X153800952Y-137952380D01*
X154039047Y-137952380D01*
D11*
X163236000Y-76185000D02*
X163080000Y-76185000D01*
X160920000Y-76185000D02*
X160764000Y-76185000D01*
X160764484Y-76185000D02*
G75*
G03*
X160921392Y-79417335I1235516J-1560000D01*
G01*
X163079837Y-78786130D02*
G75*
G03*
X163080000Y-76704039I-1079837J1041130D01*
G01*
X160920000Y-76704039D02*
G75*
G03*
X160920163Y-78786130I1080000J-1040961D01*
G01*
X163078608Y-79417335D02*
G75*
G03*
X163235516Y-76185000I-1078608J1672335D01*
G01*
X155020000Y-79120000D02*
X155020000Y-76380000D01*
X148480000Y-79120000D02*
X155020000Y-79120000D01*
X147710000Y-77750000D02*
X148480000Y-77750000D01*
X155020000Y-76380000D02*
X148480000Y-76380000D01*
X155790000Y-77750000D02*
X155020000Y-77750000D01*
X148480000Y-76380000D02*
X148480000Y-79120000D01*
X185225000Y-138385000D02*
X185225000Y-139145000D01*
X176565000Y-134895000D02*
X176565000Y-140095000D01*
X185225000Y-136605000D02*
X179225000Y-136605000D01*
X176565000Y-137495000D02*
X179225000Y-137495000D01*
X185225000Y-135845000D02*
X185225000Y-136605000D01*
X179225000Y-134895000D02*
X176565000Y-134895000D01*
X176167929Y-138385000D02*
X176565000Y-138385000D01*
X176235000Y-135845000D02*
X176565000Y-135845000D01*
X179225000Y-136505000D02*
X185225000Y-136505000D01*
X176167929Y-139145000D02*
X176565000Y-139145000D01*
X173855000Y-134955000D02*
X175125000Y-134955000D01*
X179225000Y-136385000D02*
X185225000Y-136385000D01*
X173855000Y-136225000D02*
X173855000Y-134955000D01*
X179225000Y-138385000D02*
X185225000Y-138385000D01*
X179225000Y-135905000D02*
X185225000Y-135905000D01*
X179225000Y-136145000D02*
X185225000Y-136145000D01*
X176565000Y-140095000D02*
X179225000Y-140095000D01*
X179225000Y-136265000D02*
X185225000Y-136265000D01*
X179225000Y-140095000D02*
X179225000Y-134895000D01*
X179225000Y-136025000D02*
X185225000Y-136025000D01*
X176235000Y-136605000D02*
X176565000Y-136605000D01*
X179225000Y-135845000D02*
X185225000Y-135845000D01*
X185225000Y-139145000D02*
X179225000Y-139145000D01*
X93945000Y-102220000D02*
X96605000Y-102220000D01*
X93945000Y-102220000D02*
X93945000Y-109900000D01*
X95275000Y-99620000D02*
X96605000Y-99620000D01*
X93945000Y-109900000D02*
X96605000Y-109900000D01*
X96605000Y-102220000D02*
X96605000Y-109900000D01*
X96605000Y-99620000D02*
X96605000Y-100950000D01*
X173980000Y-126230000D02*
X175250000Y-126230000D01*
X179350000Y-127300000D02*
X185350000Y-127300000D01*
X176360000Y-127120000D02*
X176690000Y-127120000D01*
X185350000Y-129660000D02*
X185350000Y-130420000D01*
X176292929Y-130420000D02*
X176690000Y-130420000D01*
X179350000Y-127780000D02*
X185350000Y-127780000D01*
X176360000Y-127880000D02*
X176690000Y-127880000D01*
X176690000Y-126170000D02*
X176690000Y-131370000D01*
X185350000Y-127120000D02*
X185350000Y-127880000D01*
X179350000Y-127660000D02*
X185350000Y-127660000D01*
X176690000Y-128770000D02*
X179350000Y-128770000D01*
X179350000Y-127120000D02*
X185350000Y-127120000D01*
X176292929Y-129660000D02*
X176690000Y-129660000D01*
X173980000Y-127500000D02*
X173980000Y-126230000D01*
X179350000Y-126170000D02*
X176690000Y-126170000D01*
X176690000Y-131370000D02*
X179350000Y-131370000D01*
X179350000Y-129660000D02*
X185350000Y-129660000D01*
X179350000Y-127420000D02*
X185350000Y-127420000D01*
X185350000Y-127880000D02*
X179350000Y-127880000D01*
X179350000Y-131370000D02*
X179350000Y-126170000D01*
X179350000Y-127180000D02*
X185350000Y-127180000D01*
X179350000Y-127540000D02*
X185350000Y-127540000D01*
X185350000Y-130420000D02*
X179350000Y-130420000D01*
%TO.C,G\u002A\u002A\u002A*%
G36*
X119047121Y-73187275D02*
G01*
X118690980Y-72969361D01*
X118395483Y-72668891D01*
X118194257Y-72342427D01*
X118139736Y-72122414D01*
X118501232Y-72122414D01*
X118596658Y-72325035D01*
X118818213Y-72552536D01*
X119068815Y-72716657D01*
X119189409Y-72748029D01*
X119352694Y-72671350D01*
X119350205Y-72488050D01*
X119193341Y-72268235D01*
X119099007Y-72192070D01*
X118796069Y-72031897D01*
X118577271Y-72011616D01*
X118501232Y-72122414D01*
X118139736Y-72122414D01*
X118120931Y-72046530D01*
X118209133Y-71837760D01*
X118234205Y-71819976D01*
X118293964Y-71661398D01*
X118280109Y-71426385D01*
X118217669Y-71099753D01*
X118994909Y-71579802D01*
X119578220Y-71953744D01*
X119973798Y-72250162D01*
X120215980Y-72506894D01*
X120339103Y-72761779D01*
X120377503Y-73052655D01*
X120378079Y-73104037D01*
X120341279Y-73441768D01*
X120247650Y-73638854D01*
X120221675Y-73654635D01*
X119953255Y-73685870D01*
X119847801Y-73531167D01*
X119902219Y-73231644D01*
X119970949Y-72902772D01*
X119893131Y-72713525D01*
X119789109Y-72670351D01*
X119753131Y-72845091D01*
X119752463Y-72897303D01*
X119682714Y-73192172D01*
X119466260Y-73293502D01*
X119189409Y-73228526D01*
X119092297Y-73205734D01*
X119047121Y-73187275D01*
G37*
G36*
X118320676Y-73030433D02*
G01*
X118493008Y-73193653D01*
X118637369Y-73434168D01*
X118671774Y-73535181D01*
X118816719Y-73765020D01*
X119100987Y-74023097D01*
X119247105Y-74122641D01*
X119551973Y-74354228D01*
X119730970Y-74576539D01*
X119752463Y-74654414D01*
X119720189Y-74841439D01*
X119683891Y-74875123D01*
X119550680Y-74812730D01*
X119271698Y-74650130D01*
X118951702Y-74450612D01*
X118568180Y-74183858D01*
X118350819Y-73958352D01*
X118241775Y-73703783D01*
X118210830Y-73550039D01*
X118174318Y-73231516D01*
X118180345Y-73036628D01*
X118189257Y-73018297D01*
X118320676Y-73030433D01*
G37*
G36*
X119860748Y-67724279D02*
G01*
X119875191Y-67899507D01*
X119828144Y-68046634D01*
X119671020Y-68231018D01*
X119376365Y-68475855D01*
X118916728Y-68804335D01*
X118373713Y-69168016D01*
X117839363Y-69526274D01*
X117389078Y-69840458D01*
X117060171Y-70083572D01*
X116889950Y-70228623D01*
X116874631Y-70252638D01*
X116971309Y-70373408D01*
X117212959Y-70556813D01*
X117312562Y-70620936D01*
X117642057Y-70894155D01*
X117750363Y-71182794D01*
X117750493Y-71194195D01*
X117728460Y-71424676D01*
X117688221Y-71496798D01*
X117561465Y-71429490D01*
X117295697Y-71254779D01*
X117016381Y-71058867D01*
X116679985Y-70825903D01*
X116427429Y-70667067D01*
X116328204Y-70620936D01*
X116192754Y-70688555D01*
X115919492Y-70864418D01*
X115623689Y-71070604D01*
X114997784Y-71520272D01*
X114997784Y-71200238D01*
X115091145Y-70899921D01*
X115393889Y-70611746D01*
X115439103Y-70580320D01*
X115880421Y-70280436D01*
X115439103Y-69943825D01*
X115102504Y-69607173D01*
X114997784Y-69289038D01*
X114997784Y-68970860D01*
X115623689Y-69420529D01*
X115965964Y-69657123D01*
X116226374Y-69820013D01*
X116335582Y-69870197D01*
X116463156Y-69803228D01*
X116760007Y-69618213D01*
X117189275Y-69338992D01*
X117714103Y-68989402D01*
X118076737Y-68744088D01*
X118641692Y-68362660D01*
X119133013Y-68036518D01*
X119514184Y-67789460D01*
X119748693Y-67645280D01*
X119804745Y-67617980D01*
X119860748Y-67724279D01*
G37*
G36*
X118740615Y-76297917D02*
G01*
X118448325Y-75987590D01*
X118239294Y-75616267D01*
X118177385Y-75321280D01*
X118501232Y-75321280D01*
X118589566Y-75582062D01*
X118804542Y-75838192D01*
X119071124Y-76026634D01*
X119314275Y-76084354D01*
X119381721Y-76060933D01*
X119447270Y-75934237D01*
X119342036Y-75711396D01*
X119150985Y-75469458D01*
X118954564Y-75327239D01*
X118718084Y-75250125D01*
X118539664Y-75260490D01*
X118501232Y-75321280D01*
X118177385Y-75321280D01*
X118157555Y-75226793D01*
X118191801Y-74989605D01*
X118359655Y-74785829D01*
X118640124Y-74744784D01*
X118977070Y-74844416D01*
X119314356Y-75062670D01*
X119595843Y-75377494D01*
X119706973Y-75584857D01*
X119840569Y-75944344D01*
X119857971Y-76169786D01*
X119756003Y-76350412D01*
X119676717Y-76434472D01*
X119398843Y-76564203D01*
X119314275Y-76548724D01*
X119072132Y-76504403D01*
X118740615Y-76297917D01*
G37*
G36*
X115237569Y-74151934D02*
G01*
X115132978Y-74018079D01*
X115024069Y-73635271D01*
X115011851Y-73289343D01*
X115373153Y-73289343D01*
X115459633Y-73585114D01*
X115665392Y-73852941D01*
X115909906Y-73994679D01*
X115955600Y-73999261D01*
X116061165Y-73913061D01*
X116114056Y-73633329D01*
X116123892Y-73311083D01*
X116098339Y-72870235D01*
X116024538Y-72647005D01*
X115977340Y-72622906D01*
X115725470Y-72726137D01*
X115494426Y-72968597D01*
X115375638Y-73249435D01*
X115373153Y-73289343D01*
X115011851Y-73289343D01*
X115007213Y-73158019D01*
X115082411Y-72724579D01*
X115132978Y-72604088D01*
X115350066Y-72382117D01*
X115705613Y-72171563D01*
X116091785Y-72028134D01*
X116307558Y-71997290D01*
X116405531Y-72041571D01*
X116464337Y-72204640D01*
X116492658Y-72531836D01*
X116499261Y-72998276D01*
X116505299Y-73499162D01*
X116531036Y-73799538D01*
X116587913Y-73949001D01*
X116687368Y-73997150D01*
X116730115Y-73999261D01*
X117027016Y-73889877D01*
X117268617Y-73622216D01*
X117374804Y-73287014D01*
X117375124Y-73268726D01*
X117284022Y-72980524D01*
X117124877Y-72781559D01*
X116948467Y-72555503D01*
X116876596Y-72317106D01*
X116924371Y-72151554D01*
X117007980Y-72122414D01*
X117351196Y-72237738D01*
X117634536Y-72544693D01*
X117737332Y-72764059D01*
X117853221Y-73216222D01*
X117829545Y-73592842D01*
X117746886Y-73842066D01*
X117518993Y-74144258D01*
X117141473Y-74413381D01*
X116713445Y-74588994D01*
X116463962Y-74624409D01*
X116016498Y-74557667D01*
X115955600Y-74533894D01*
X115575609Y-74385556D01*
X115237569Y-74151934D01*
G37*
G36*
X118353489Y-79866568D02*
G01*
X118107169Y-79485872D01*
X117907723Y-79101154D01*
X117885297Y-79047208D01*
X117768259Y-78787050D01*
X117750493Y-78777928D01*
X117647239Y-78724914D01*
X117429162Y-78824972D01*
X117380408Y-78852856D01*
X117115218Y-78979497D01*
X117060501Y-78974713D01*
X116915932Y-78962072D01*
X116708756Y-78842298D01*
X116440788Y-78544881D01*
X116235791Y-78089320D01*
X116130949Y-77566383D01*
X116124590Y-77416251D01*
X116087005Y-77266400D01*
X116567463Y-77266400D01*
X116587095Y-77471428D01*
X116715533Y-78014281D01*
X116896407Y-78313942D01*
X117060501Y-78378571D01*
X117277888Y-78270631D01*
X117318693Y-78194905D01*
X118000739Y-78194905D01*
X118045330Y-78514466D01*
X118156274Y-78871216D01*
X118299336Y-79181661D01*
X118440274Y-79362309D01*
X118486536Y-79379556D01*
X118592331Y-79271527D01*
X118661858Y-79035468D01*
X118705992Y-78769897D01*
X118732731Y-78648133D01*
X118680380Y-78528709D01*
X118527356Y-78290768D01*
X118492712Y-78241483D01*
X118246751Y-77955914D01*
X118083102Y-77901705D01*
X118006280Y-78079284D01*
X118000739Y-78194905D01*
X117318693Y-78194905D01*
X117416854Y-78012735D01*
X117425455Y-77703766D01*
X117421985Y-77690394D01*
X117275175Y-77415494D01*
X117100143Y-77221182D01*
X116939691Y-77112571D01*
X117625370Y-77112571D01*
X117716679Y-77289455D01*
X117750493Y-77315024D01*
X117865976Y-77309305D01*
X117875616Y-77267232D01*
X117784307Y-77090348D01*
X117750493Y-77064778D01*
X117635010Y-77070498D01*
X117625370Y-77112571D01*
X116939691Y-77112571D01*
X116800101Y-77018081D01*
X116622440Y-77033203D01*
X116567463Y-77266400D01*
X116087005Y-77266400D01*
X116053332Y-77132148D01*
X115873419Y-77041699D01*
X115680480Y-77131888D01*
X115525083Y-77402699D01*
X115504064Y-77765222D01*
X115609768Y-78105135D01*
X115756656Y-78269467D01*
X115943635Y-78491872D01*
X115930954Y-78660098D01*
X115816448Y-78843815D01*
X115648238Y-78841509D01*
X115370898Y-78652149D01*
X115367752Y-78649604D01*
X115145630Y-78334496D01*
X115022193Y-77888099D01*
X115004156Y-77404793D01*
X115098237Y-76978955D01*
X115233722Y-76766278D01*
X115408182Y-76629062D01*
X115635408Y-76548583D01*
X115981946Y-76510816D01*
X116489028Y-76501724D01*
X116984787Y-76492502D01*
X117398228Y-76468093D01*
X117652910Y-76433382D01*
X117677698Y-76425776D01*
X117846278Y-76431146D01*
X117875616Y-76504396D01*
X117939070Y-76664790D01*
X118112079Y-76989172D01*
X118368613Y-77431196D01*
X118682644Y-77944518D01*
X118699854Y-77971968D01*
X119039136Y-78530307D01*
X119342807Y-79062608D01*
X119576375Y-79506368D01*
X119700839Y-79785926D01*
X119802694Y-80186931D01*
X119860746Y-80642161D01*
X119872592Y-81075401D01*
X119835825Y-81410434D01*
X119757027Y-81566391D01*
X119592381Y-81541901D01*
X119381658Y-81386091D01*
X119204163Y-81139093D01*
X119128135Y-80896852D01*
X119160575Y-80729811D01*
X119308484Y-80708413D01*
X119314532Y-80710663D01*
X119448323Y-80670954D01*
X119500002Y-80458418D01*
X119472807Y-80135469D01*
X119369974Y-79764523D01*
X119251971Y-79504680D01*
X119012214Y-79066748D01*
X119006969Y-79449484D01*
X118948751Y-79805273D01*
X118833984Y-80061619D01*
X118716807Y-80189510D01*
X118605556Y-80170582D01*
X118486536Y-80035087D01*
X118437643Y-79979426D01*
X118353489Y-79866568D01*
G37*
G36*
X117349630Y-79488766D02*
G01*
X117645467Y-79775487D01*
X117824708Y-80178361D01*
X117866350Y-80636029D01*
X117749388Y-81087130D01*
X117616288Y-81302091D01*
X117360613Y-81534915D01*
X117108983Y-81627077D01*
X116926689Y-81568934D01*
X116874631Y-81411625D01*
X116972226Y-81176534D01*
X117124877Y-81035195D01*
X117294857Y-80820299D01*
X117375117Y-80507575D01*
X117358993Y-80196622D01*
X117239821Y-79987039D01*
X117196587Y-79963435D01*
X117006645Y-79965727D01*
X116839109Y-80151827D01*
X116671529Y-80550398D01*
X116624872Y-80693349D01*
X116390776Y-81224116D01*
X116101815Y-81541792D01*
X115780405Y-81636401D01*
X115448961Y-81497967D01*
X115257111Y-81302091D01*
X115061949Y-80912106D01*
X115008361Y-80474653D01*
X115080885Y-80054536D01*
X115264060Y-79716556D01*
X115542425Y-79525515D01*
X115685961Y-79504680D01*
X115836034Y-79595315D01*
X115864957Y-79793545D01*
X115774264Y-79988851D01*
X115678348Y-80053341D01*
X115543381Y-80200499D01*
X115516862Y-80524910D01*
X115521944Y-80598502D01*
X115593289Y-80947391D01*
X115718391Y-81061982D01*
X115879963Y-80947927D01*
X116060721Y-80610879D01*
X116140955Y-80396106D01*
X116334429Y-79884494D01*
X116512340Y-79573875D01*
X116710072Y-79420236D01*
X116958201Y-79379556D01*
X117349630Y-79488766D01*
G37*
G36*
X116594973Y-75252132D02*
G01*
X117103234Y-75260356D01*
X117435602Y-75280121D01*
X117629252Y-75316383D01*
X117721358Y-75374099D01*
X117749095Y-75458225D01*
X117750493Y-75500739D01*
X117738194Y-75596916D01*
X117676514Y-75664684D01*
X117528278Y-75708999D01*
X117256312Y-75734819D01*
X116823443Y-75747100D01*
X116192495Y-75750799D01*
X115873646Y-75750985D01*
X115152318Y-75749345D01*
X114644058Y-75741121D01*
X114311690Y-75721356D01*
X114118040Y-75685094D01*
X114025933Y-75627378D01*
X113998197Y-75543252D01*
X113996798Y-75500739D01*
X114009098Y-75404562D01*
X114070778Y-75336794D01*
X114219014Y-75292478D01*
X114490979Y-75266658D01*
X114923849Y-75254377D01*
X115554797Y-75250679D01*
X115873646Y-75250492D01*
X116594973Y-75252132D01*
G37*
G36*
X119675495Y-77434915D02*
G01*
X119729804Y-77605733D01*
X119718241Y-77800386D01*
X119575541Y-77802328D01*
X119573400Y-77801512D01*
X119434707Y-77668648D01*
X119379109Y-77472639D01*
X119414252Y-77312794D01*
X119533498Y-77283117D01*
X119675495Y-77434915D01*
G37*
%TO.C,REF\u002A\u002A*%
X163080000Y-130315000D02*
X163236000Y-130315000D01*
X160764000Y-130315000D02*
X160920000Y-130315000D01*
X160921392Y-127082665D02*
G75*
G03*
X160764484Y-130315000I1078608J-1672335D01*
G01*
X160920163Y-127713870D02*
G75*
G03*
X160920000Y-129795961I1079837J-1041130D01*
G01*
X163235516Y-130315000D02*
G75*
G03*
X163078608Y-127082665I-1235516J1560000D01*
G01*
X163080000Y-129795961D02*
G75*
G03*
X163079837Y-127713870I-1080000J1040961D01*
G01*
X147880000Y-132500000D02*
X148650000Y-132500000D01*
X148650000Y-131130000D02*
X148650000Y-133870000D01*
X148650000Y-133870000D02*
X155190000Y-133870000D01*
X155190000Y-133870000D02*
X155190000Y-131130000D01*
X155960000Y-132500000D02*
X155190000Y-132500000D01*
X155190000Y-131130000D02*
X148650000Y-131130000D01*
X179225000Y-79950000D02*
X185225000Y-79950000D01*
X176167929Y-79950000D02*
X176565000Y-79950000D01*
X176167929Y-80710000D02*
X176565000Y-80710000D01*
X176167929Y-77410000D02*
X176565000Y-77410000D01*
X176565000Y-73920000D02*
X176565000Y-81660000D01*
X179225000Y-77410000D02*
X185225000Y-77410000D01*
X173855000Y-75250000D02*
X173855000Y-73980000D01*
X185225000Y-79950000D02*
X185225000Y-80710000D01*
X185225000Y-75630000D02*
X179225000Y-75630000D01*
X176235000Y-74870000D02*
X176565000Y-74870000D01*
X176565000Y-81660000D02*
X179225000Y-81660000D01*
X179225000Y-75530000D02*
X185225000Y-75530000D01*
X179225000Y-74930000D02*
X185225000Y-74930000D01*
X179225000Y-75050000D02*
X185225000Y-75050000D01*
X176167929Y-78170000D02*
X176565000Y-78170000D01*
X179225000Y-75170000D02*
X185225000Y-75170000D01*
X176565000Y-79060000D02*
X179225000Y-79060000D01*
X179225000Y-73920000D02*
X176565000Y-73920000D01*
X185225000Y-80710000D02*
X179225000Y-80710000D01*
X185225000Y-78170000D02*
X179225000Y-78170000D01*
X179225000Y-75410000D02*
X185225000Y-75410000D01*
X179225000Y-81660000D02*
X179225000Y-73920000D01*
X176235000Y-75630000D02*
X176565000Y-75630000D01*
X176565000Y-76520000D02*
X179225000Y-76520000D01*
X179225000Y-75290000D02*
X185225000Y-75290000D01*
X173855000Y-73980000D02*
X175125000Y-73980000D01*
X185225000Y-77410000D02*
X185225000Y-78170000D01*
X185225000Y-74870000D02*
X185225000Y-75630000D01*
X179225000Y-74870000D02*
X185225000Y-74870000D01*
X140555000Y-118924999D02*
X188475000Y-118925000D01*
X188475000Y-90525001D02*
X140555000Y-90525000D01*
X134641880Y-95711680D02*
X140534680Y-95711680D01*
X188475000Y-118925000D02*
X188475000Y-90525001D01*
X140555000Y-90525000D02*
X140555000Y-118924999D01*
X134641880Y-113694880D02*
X134641880Y-95711680D01*
X140534680Y-113694880D02*
X134641880Y-113694880D01*
%TO.C,*%
X147880000Y-127500000D02*
X148650000Y-127500000D01*
X155190000Y-128870000D02*
X155190000Y-126130000D01*
X148650000Y-128870000D02*
X155190000Y-128870000D01*
X155190000Y-126130000D02*
X148650000Y-126130000D01*
X155960000Y-127500000D02*
X155190000Y-127500000D01*
X148650000Y-126130000D02*
X148650000Y-128870000D01*
%TO.C,REF\u002A\u002A*%
X155190000Y-138870000D02*
X155190000Y-136130000D01*
X155190000Y-136130000D02*
X148650000Y-136130000D01*
X148650000Y-136130000D02*
X148650000Y-138870000D01*
X147880000Y-137500000D02*
X148650000Y-137500000D01*
X155960000Y-137500000D02*
X155190000Y-137500000D01*
X148650000Y-138870000D02*
X155190000Y-138870000D01*
%TD*%
M02*
