%TF.GenerationSoftware,KiCad,Pcbnew,(6.0.9)*%
%TF.CreationDate,2022-12-30T22:43:23+01:00*%
%TF.ProjectId,mainboard,6d61696e-626f-4617-9264-2e6b69636164,rev?*%
%TF.SameCoordinates,Original*%
%TF.FileFunction,Copper,L2,Bot*%
%TF.FilePolarity,Positive*%
%FSLAX46Y46*%
G04 Gerber Fmt 4.6, Leading zero omitted, Abs format (unit mm)*
G04 Created by KiCad (PCBNEW (6.0.9)) date 2022-12-30 22:43:23*
%MOMM*%
%LPD*%
G01*
G04 APERTURE LIST*
%TA.AperFunction,ComponentPad*%
%ADD10R,1.800000X1.800000*%
%TD*%
%TA.AperFunction,ComponentPad*%
%ADD11C,1.800000*%
%TD*%
%TA.AperFunction,ComponentPad*%
%ADD12C,1.600000*%
%TD*%
%TA.AperFunction,ComponentPad*%
%ADD13O,1.600000X1.600000*%
%TD*%
%TA.AperFunction,ComponentPad*%
%ADD14R,1.700000X1.700000*%
%TD*%
%TA.AperFunction,ComponentPad*%
%ADD15O,1.700000X1.700000*%
%TD*%
%TA.AperFunction,ComponentPad*%
%ADD16R,1.200000X2.000000*%
%TD*%
%TA.AperFunction,ComponentPad*%
%ADD17O,1.200000X2.000000*%
%TD*%
%TA.AperFunction,Conductor*%
%ADD18C,0.200000*%
%TD*%
%TA.AperFunction,Conductor*%
%ADD19C,0.250000*%
%TD*%
G04 APERTURE END LIST*
D10*
%TO.P,REF\u002A\u002A,1*%
%TO.N,N/C*%
X162000000Y-76475000D03*
D11*
%TO.P,REF\u002A\u002A,2*%
X162000000Y-79015000D03*
%TD*%
D12*
%TO.P,REF\u002A\u002A,1*%
%TO.N,N/C*%
X146670000Y-77750000D03*
D13*
%TO.P,REF\u002A\u002A,2*%
X156830000Y-77750000D03*
%TD*%
D14*
%TO.P,REF\u002A\u002A,1*%
%TO.N,N/C*%
X175125000Y-136225000D03*
D15*
%TO.P,REF\u002A\u002A,2*%
X175125000Y-138765000D03*
%TD*%
D14*
%TO.P,REF\u002A\u002A,1*%
%TO.N,N/C*%
X95275000Y-100950000D03*
D15*
%TO.P,REF\u002A\u002A,2*%
X95275000Y-103490000D03*
%TO.P,REF\u002A\u002A,3*%
X95275000Y-106030000D03*
%TO.P,REF\u002A\u002A,4*%
X95275000Y-108570000D03*
%TD*%
D14*
%TO.P,REF\u002A\u002A,1*%
%TO.N,N/C*%
X175250000Y-127500000D03*
D15*
%TO.P,REF\u002A\u002A,2*%
X175250000Y-130040000D03*
%TD*%
D10*
%TO.P,REF\u002A\u002A,1*%
%TO.N,N/C*%
X162000000Y-130025000D03*
D11*
%TO.P,REF\u002A\u002A,2*%
X162000000Y-127485000D03*
%TD*%
D12*
%TO.P,REF\u002A\u002A,1*%
%TO.N,N/C*%
X146840000Y-132500000D03*
D13*
%TO.P,REF\u002A\u002A,2*%
X157000000Y-132500000D03*
%TD*%
D14*
%TO.P,REF\u002A\u002A,1*%
%TO.N,N/C*%
X175125000Y-75250000D03*
D15*
%TO.P,REF\u002A\u002A,2*%
X175125000Y-77790000D03*
%TO.P,REF\u002A\u002A,3*%
X175125000Y-80330000D03*
%TD*%
D16*
%TO.P,REF\u002A\u002A,1*%
%TO.N,N/C*%
X141655000Y-117425000D03*
D17*
%TO.P,REF\u002A\u002A,2*%
X144195000Y-117425000D03*
%TO.P,REF\u002A\u002A,3*%
X146735000Y-117425000D03*
%TO.P,REF\u002A\u002A,4*%
X149275000Y-117425000D03*
%TO.P,REF\u002A\u002A,5*%
X151815000Y-117425000D03*
%TO.P,REF\u002A\u002A,6*%
X154355000Y-117425000D03*
%TO.P,REF\u002A\u002A,7*%
X156895000Y-117425000D03*
%TO.P,REF\u002A\u002A,8*%
X159435000Y-117425000D03*
%TO.P,REF\u002A\u002A,9*%
X161975000Y-117425000D03*
%TO.P,REF\u002A\u002A,10*%
X164515000Y-117425000D03*
%TO.P,REF\u002A\u002A,11*%
X167055000Y-117425000D03*
%TO.P,REF\u002A\u002A,12*%
X169595000Y-117425000D03*
%TO.P,REF\u002A\u002A,13*%
X172135000Y-117425000D03*
%TO.P,REF\u002A\u002A,14*%
X174675000Y-117425000D03*
%TO.P,REF\u002A\u002A,15*%
X177215000Y-117425000D03*
%TO.P,REF\u002A\u002A,16*%
X179755000Y-117425000D03*
%TO.P,REF\u002A\u002A,17*%
X182295000Y-117425000D03*
%TO.P,REF\u002A\u002A,18*%
X184835000Y-117425000D03*
%TO.P,REF\u002A\u002A,19*%
X187375000Y-117425000D03*
%TO.P,REF\u002A\u002A,20*%
X187372280Y-92028680D03*
%TO.P,REF\u002A\u002A,21*%
X184832280Y-92028680D03*
%TO.P,REF\u002A\u002A,22*%
X182295000Y-92025000D03*
%TO.P,REF\u002A\u002A,23*%
X179755000Y-92025000D03*
%TO.P,REF\u002A\u002A,24*%
X177215000Y-92025000D03*
%TO.P,REF\u002A\u002A,25*%
X174675000Y-92025000D03*
%TO.P,REF\u002A\u002A,26*%
X172135000Y-92025000D03*
%TO.P,REF\u002A\u002A,27*%
X169595000Y-92025000D03*
%TO.P,REF\u002A\u002A,28*%
X167055000Y-92025000D03*
%TO.P,REF\u002A\u002A,29*%
X164515000Y-92025000D03*
%TO.P,REF\u002A\u002A,30*%
X161975000Y-92025000D03*
%TO.P,REF\u002A\u002A,31*%
X159435000Y-92025000D03*
%TO.P,REF\u002A\u002A,32*%
X156895000Y-92025000D03*
%TO.P,REF\u002A\u002A,33*%
X154355000Y-92025000D03*
%TO.P,REF\u002A\u002A,34*%
X151815000Y-92025000D03*
%TO.P,REF\u002A\u002A,35*%
X149275000Y-92025000D03*
%TO.P,REF\u002A\u002A,36*%
X146735000Y-92025000D03*
%TO.P,REF\u002A\u002A,37*%
X144195000Y-92025000D03*
%TO.P,REF\u002A\u002A,38*%
X141655000Y-92025000D03*
%TD*%
D12*
%TO.P,,1*%
%TO.N,N/C*%
X146840000Y-127500000D03*
D13*
%TO.P,,2*%
X157000000Y-127500000D03*
%TD*%
D12*
%TO.P,REF\u002A\u002A,1*%
%TO.N,N/C*%
X146840000Y-137500000D03*
D13*
%TO.P,REF\u002A\u002A,2*%
X157000000Y-137500000D03*
%TD*%
D18*
%TO.N,*%
X162000000Y-130025000D02*
X159525000Y-130025000D01*
X141655000Y-90405000D02*
X140500000Y-89250000D01*
X159525000Y-76475000D02*
X158250000Y-77750000D01*
D19*
X134500000Y-123000000D02*
X136500000Y-125000000D01*
X149000000Y-73500000D02*
X169250000Y-73500000D01*
D18*
X141655000Y-92025000D02*
X141655000Y-90405000D01*
D19*
X136750000Y-77750000D02*
X146670000Y-77750000D01*
D18*
X167055000Y-117425000D02*
X167055000Y-120695000D01*
D19*
X170750000Y-76500000D02*
X172040000Y-77790000D01*
D18*
X175250000Y-130040000D02*
X172960000Y-130040000D01*
D19*
X146840000Y-132500000D02*
X146840000Y-137500000D01*
X134500000Y-103000000D02*
X134500000Y-106000000D01*
D18*
X159525000Y-130025000D02*
X159000000Y-129500000D01*
X172500000Y-130500000D02*
X172500000Y-132000000D01*
X172960000Y-130040000D02*
X172500000Y-130500000D01*
D19*
X146840000Y-127500000D02*
X146840000Y-132500000D01*
X146670000Y-77750000D02*
X146670000Y-75830000D01*
X134500000Y-89250000D02*
X134500000Y-80000000D01*
D18*
X159000000Y-128250000D02*
X158250000Y-127500000D01*
X168750000Y-132500000D02*
X157000000Y-132500000D01*
X95275000Y-106030000D02*
X134470000Y-106030000D01*
D19*
X169250000Y-73500000D02*
X170750000Y-75000000D01*
X170750000Y-75000000D02*
X170750000Y-76500000D01*
D18*
X168750000Y-122390000D02*
X168750000Y-132500000D01*
D19*
X134500000Y-80000000D02*
X136750000Y-77750000D01*
D18*
X159000000Y-129500000D02*
X159000000Y-128250000D01*
D19*
X172040000Y-77790000D02*
X175125000Y-77790000D01*
X136500000Y-125000000D02*
X145750000Y-125000000D01*
D18*
X172000000Y-132500000D02*
X168750000Y-132500000D01*
X140500000Y-89250000D02*
X134500000Y-89250000D01*
X167055000Y-120695000D02*
X168750000Y-122390000D01*
D19*
X146670000Y-75830000D02*
X149000000Y-73500000D01*
X145750000Y-125000000D02*
X146840000Y-126090000D01*
D18*
X158250000Y-77750000D02*
X156830000Y-77750000D01*
X162000000Y-76475000D02*
X159525000Y-76475000D01*
X134470000Y-106030000D02*
X134500000Y-106000000D01*
X172500000Y-132000000D02*
X172000000Y-132500000D01*
D19*
X146840000Y-126090000D02*
X146840000Y-127500000D01*
X134500000Y-106000000D02*
X134500000Y-123000000D01*
D18*
X158250000Y-127500000D02*
X157000000Y-127500000D01*
D19*
X134500000Y-89250000D02*
X134500000Y-103000000D01*
%TD*%
M02*
